<svg id="Livello_1" data-name="Livello 1" xmlns="http://www.w3.org/2000/svg" viewBox="0 0 841.89 1190.55"><defs><style>.cls-1{fill:#eec55b;}.cls-2,.cls-3{fill:none;stroke-miterlimit:10;stroke-width:2px;}.cls-2{stroke:#68ab6a;}.cls-3{stroke:#cf6082;}</style></defs><title>Sfondo</title><rect class="cls-1" width="841.89" height="1190.55"/><path class="cls-2" d="M0,578.55a265.15,265.15,0,0,1,28-3c9.44-.51,12.87-.19,38,0,18.63.14,27.94.21,33,0,15.46-.65,19.29-1.76,30-1,9,.64,11.59,1.8,24,4,6.46,1.14,18.39,2.45,42,5,22,2.38,33.2,3.59,40,4,22,1.34,20.36-.32,34,1,29.33,2.84,30.37,9.89,51,9,12-.52,14.56-3,34-4,2.2-.11,11.06-.52,24,0,27.11,1.1,29.62,4.58,56,6,11.29.61,12.47.06,34,1,10.89.48,13.7.75,22,1,12.87.38,22.44.2,32,0,25-.51,29.76-1.66,47-1,7.42.28,14.09.78,17,1,17,1.28,21.57,2.48,30,3,16.18,1,14.25-2.49,36-3,9.14-.22,20.43.52,43,2,10.11.66,9.85.76,15,1,13.77.65,20.31.2,36,0,23.56-.3,23.52.55,44,0,3.26-.09,12.27-.35,24-1,10.57-.59,20-1.3,27.89-2"/><path class="cls-3" d="M0,318.68a36.14,36.14,0,0,0,10.72-4.6c3.48-2.32,3.8-4.34,6.66-6.95,6.09-5.56,14.1-9.28,20.35-15,6.92-6.29,6.5-10.24,6.66-18.55.12-6.5,2.79-14.84,4.42-22.16a91.88,91.88,0,0,1,8.25-22.29c1-2,3-6.46,4.4-8,3.71-4.29,1.33-.56,6.37-2.91,7.32-3.41,8.5-6.94,11.79,2.85,1.6,4.76,2,11.41,2,17,.09,9.33-1.18,19.52-.18,28.88.85,8,3.21,16.13,4.24,24.09,1.55,11.89.13,32.46,17.59,36,8.29,1.69,13.6-10.42,18.61-16.21,7.05-8.14,8.16-13.88,10.37-23.95,1.65-7.55.82-14.62,8.06-18.85,3.78-2.21,4.64-2.1,9.83-2.07,1.88,0,12.53,2.09,13.9,1.7,6-1.7,7.66-15.88,8.27-21.5.11-1,.52-7.93.73-8.59,2-6.37,1.88-4.62,7.69-2.69,4.42,1.47,7.41,5.35,11.43,6.89s8.6.93,13.14,3.43c3.57,2,20.61,16.09,23.76,14.3.8-.45-.67-12.69-.67-13.38,0-5-1.46-6.48-2.93-10.62-2.66-7.51.41-9.63,1.82-16.84.35-1.77-1.48-3.7-.83-5.55,1.26-3.55,4.61-4,6-7,4.22-9.18.6-20.42,1.35-29.95.51-6.47,1.69-10,.6-16.66-1.37-8.35,0-12,1-20.4.56-5,1.79-8.06,2.85-12.84,1.29-5.84-.62-9.23-1-14.29-.32-3.86.59-8.36,1-12.32.34-3.4.9-6.06,0-9.35-.64-2.22-5-5.62-4.86-7.57.58-8.45,11.11,6.07,14.6,7.2,6.62,2.13,16.8-3.47,22.67,2,1.09,1,3.8,9.42,4.69,11.45,1.51,3.47,3.84,8.73,4.34,11.9.53,3.36-2.34,5.55-1,9.66.74,2.28,3.35,3.7,4.08,5.67,2,5.35-.83,5.2-1.69,8.63-2.49,9.92-.32,7.38,4.19,14.73,3,4.84,4.35,10.46,7.23,15.51,2.72,4.76,3.17,10.14,5.94,14.54,2.46,3.91,8.7,8.27,12.09,12,4.3,4.73,4.46,3.74,3.53,9.2-.65,3.81-4.29,6.15-4.7,10.08-.2,1.83,2.48,3,2.83,4.7s-1.23,3.29-.71,4.75c.38,1.07,2.75,4.8,2.77,5.34.11,3.13-1.25,1.85-1.47,5-.34,4.94-.83,12.91,1.4,18,2.4,5.53,3.5,4.51,10.92,4.91,7.82.42,10.79-.66,17.6,2.17,6,2.48,9.57,2.53,15.76,2.35,2.2-.07,5.89.08,8-.08s6.3-1.11,8-1.2c14.07-.72,18.51,10.92,26.63,19.25a52.27,52.27,0,0,0,14.36,9.81c7,3.18,4,3.73,6.37-5.16,1.53-5.8,4.49-9.53,4.65-15.72.08-3.25-1-6.21-.43-9.5.65-3.55,4.07-7.29,3.85-11-.34-5.78-7.16-9.61-7.87-15.7-.41-3.54,2.29-9.18,2.15-13.24-.17-5.16.08-12.69-1.48-17.71-1.85-6-7.28-9.59-7.53-16.15,0,1,3-9.56,2.52-8.65,1.73-3.39,5.85-6,8.05-9.31,2.57-3.84.35-3.24,3.23-6,2.16-2.08,6.1-1.87,8.29-3.47,5.36-3.93,2.61-6.8,4.39-13.53,1.3-4.89,5-9.82,7.18-14.29,3.92-7.89.35-4.83.45-11.94.18-12.69,15.61-14.8,11.9-29.33a43.62,43.62,0,0,0-1.64-6.2c-.31-.77-3.24-.28-3.64-1.06-1.91-3.71-2.68-11-3.3-15.05-.87-5.63-.84-11-3.21-16.35-4.48-10-1.83-5.65.27-15.42,1-4.87-2.35-6.28,1.73-8.93,3.39-2.2,13.46.65,16.4,2.5A20.51,20.51,0,0,1,476,40.33c2.18,6.62,5.27,11.8,7.77,18.47,1.87,5,1.46,10.09,3.22,15C488.85,79,493.46,82,495.2,87s-1,9.9-.24,14.37c.24,1.41,3,5.75,2.67,6.91-1.62,5-3-1-6.2-.41-4.44.78-2.14,15.79-3.42,21.63-2.41,11-6.86,20.87-3.4,32.32,1.28,4.22,6.44,7.22,6.79,10,.17,1.41-3.18,1.34-3.18,2.11,0,2.75-.69.67,1.22,5.55.88,2.25,2.6,3.5,3.22,6,1,4.18-1.22,6.15-.84,10,.24,2.44.45,5.07,2,7.14,1.86,2.52,4.57,2.4,5.44,3.44,2.75,3.29,3.41,9.69,7.43,14.27,5.49,6.25,8.08,5.79,1.66,11-5,4.09-8.23,2.48-9.11,9.3-.9,7,5.54,16.74,8.46,22.73,5.92,12.15,6.62,26,17,36.16,4.36,4.29,7.08,5,13.7,5.09,1.58,0,7,.42,8.34-.14,1.94-.8,4.71-5.44,6.27-5.1,6.69,1.45.88,13.85,1.43,16.44,1.25,5.83,10.55,7.46,16.66,9.68,12.18,4.43,33.54,15.49,43.14,4.38,8.61-10,4.76-24.73,15.84-33.4,2.15-1.68,5.27-2.2,7.11-4.13,1.32-1.38-.35-3.85.79-4.84a68.69,68.69,0,0,1,9.42-6c1.44-.77,4.06.68,6-.42s2-4.28,3.68-5.32c4.56-2.81,10.44-1.31,15.42.5,5.33,1.93,10.36,7.37,15.68,9,5.5,1.67,3.38-.4,7.66-.44,3.2,0,4.87-.43,9,.31,3,.55,5.89.87,8.8,1.65,2.18.58,3.14,2.38,5.62,2.71,6.64.88,14.3-3.22,20.81-4,3-.34,5.86.67,8.82-.12,1.58-.42,5.64-4.2,7.13-4,3.94.6,7.14,12.86,10.3,11.67.48-.18,1.33-3.41,1.54-3.36,2.94.72,5.11,2.06,7.75,3.47,4.91,2.62,9.48,5.59,12.65,10.22,3.41,5,3.94,8.49,9.58,11.84,4.83,2.87,11.16,3.88,15.74,7.3s10.71,18.88,17.49,8.94c5.6-8.2-5.08-22,10.82-25.59"/><path class="cls-3" d="M0,347.32c8.09-2.57,14.51-4.6,22.93-5.41,12.27-1.18,19.5-8.51,28.71-15.41,4-3,4.75-3.22,7.81-7.3.8-1.06,4.82-8.15,4.9-8.2,5.17-2.81,8.6,9.7,8.88,14.64.5,8.73-2.35,16.38,7.71,19.85,5.3,1.83,10.13,1.87,15.38,4.34,5.74,2.7,9.51,7.1,15.73,4.85,9.65-3.49,20.15-12.85,23.63-22.39,1.27-3.48.93-9.87,2.62-12.68,2-3.3,6.24-4.19,8-7.73,4.24-8.48-2-17.73,2.12-26.41,1.57-3.32,3.54-5,7.58-3.9,1.68.45,9.45,5.33,10.76,6.63,4.24,4.17,3.19,4,8.9,6.54,2.75,1.22,6.47,4.4,9.86,3.33,6.69-2.1,5.78-16.1,6-20.84.09-2.44.45-13.11,1.87-13.68,2.51-1,6.67,5.57,7.94,6.83,4.5,4.42,7.22,6,13.11,8.71,7.74,3.61,8.23,10.73,14.92,14.9,11,6.83,13.94-6.76,13.48-15.35-.26-4.83-1.77-9.6-1.6-14.35.25-6.78,2.11-13.59,2.38-20.48.25-6.5-.82-8.68-2.54-14.61-1.9-6.6-.33-10.07,1.34-16.9,5.63-23,2.69-49.72,13.44-71.57,3.23-6.56,3.15-5.41,8.14-1.69,4.16,3.1,6.84,7.36,6.13,12.61-1.36,10.09-9.28,21.35,1.45,29.86,2.49,2,6.31,2.63,8.07,4.61,3,3.42,2.65,7.74,6.48,11.12,1.58,1.39,9.44,4.7,9.88,6.89.82,4.16-3.52,8.19-2.87,13,.82,6.07,4.12,10.49,4.21,17,0,1.21,1.33,2.5,1.29,3.72s-2.14,3-2,4.25c.76,8.59,5.39,10.37,4.09,19.49-.73,5.12-4.28,2.87-.55,8.07,3.94,5.51,13.16,2.3,17.49,5.1,2.89,1.87,3.35,4.9,2.59,9.36-.23,1.33-2.36,6-2.36,6.42,0,2.42,1.24,2.82,1.62,4.94,1.09,6,5.93,15.44,10.89,19.38,9.23,7.32,15.58-.12,22.57-5.39,5.74-4.32,14.14-5.8,20.47-9.42,2.69-1.54,3.57-3.23,6.09-4,3.22-1,9.22-.31,12.33.83,9.47,3.49,18.26,13.74,24.5,21.16,4.38,5.2,9.48,20.55,18.46,13.55,7.25-5.64-1.38-25.13,0-33.78.83-5.27,4.6-9.06,5.58-13.77.79-3.79-1.91-9.77-1.78-13.78.39-12.07,5-24.59,4.66-36.65-.14-4.51-2-7.78-3.07-12.27-1.5-6.3.95-10.78,1.75-17,.48-3.68-1.83-9.26-.92-11.56-.46,1.16,8.2-6.69,8.2-6.69,1.41-1,4.65-.41,6.29-1.43,2.88-1.78,6.36-5.8,8.72-8.19,1.37-1.39,7.88-10.16,9.27-10,2.74.23,6.12,23.19,6.82,26.37,1.47,6.64,2.9,12.58,3.79,19.3.46,3.44.38,6.4,2,9.49.75,1.39,5.2,4.73,4.85,6.41-.43,2.08-4.25,1.67-5.33,3.34-1.93,3-1.25,3.79-1.59,8-.43,5.18-1.23,11.29.51,16.33s5.52,9.06,7.39,13.85c1.67,4.27,1.89,10.28,2.56,14.95.88,6.17,3.25,18.72,6.55,24,2.46,3.93,6.59,3.77,8.89,6.62,1.54,1.91.87,5.51,2.1,7.78,1.54,2.85,3.78,4.24,6.07,6.44,3.85,3.7,7.23,6.93,12.24,9,1.5.62,1.35,2.8,2.93,3.08,1.34.24,1.67-1.8,1.4-1.81,0,0,.36-2.76,1.55-3,1.64-.27,4.24,2.2,5.54,2.94,10,5.7,20.42,11.83,30.74,16.84,12.43,6,22.79,9.27,36.67,10.33,12.63,1,19.52-.75,22.63-14,.52-2.2,0-5.55.48-8,.71-3.39,3-6.88,4.22-10.13,1.9-5.15,3-11.28,7.2-15.23,1.67-1.57,3.35-.59,4.92-1.65,1.25-.85,2.29-2.92,3.6-3.66,3.6-2,7.44-2.24,11.33-3.25.6-.16,2.48.79,2.8.66l2.54.25A16.39,16.39,0,0,0,670,307.4c3.25-1.33,3.62-1.56,6.29.42,4.66,3.46,1.56,8.48,9.9,7.32,3.56-.49,5.37-2.61,8.42-3.42,10.12-2.69,14.27,6.5,24.39,8.23,7,1.2,12.38,2,17.91-2.71,3.78-3.24,3.52-9.75,6.92-12.27,5-3.72,5.87,1.62,8.12,4.3,2,2.36,3.21,4.52,5.88,6.25,4.29,2.78,7.88.76,11.64,2.49,6.32,2.92,2.08,10.61,3.3,15.94,1.65,7.18,8.42,14.23,12.87,19.78,8.1,10.09,16.7,14.22,29.28,17.49,4.39,1.14,10.09,1.83,13.52-.51,2.17-1.47,2-5.06,4.24-6.71,2.92-2.19,6.25-1.07,9.2-2.57"/><path class="cls-3" d="M0,384.13c4.85-.31,12.06-5.73,15.48-8.64,5.68-4.83,10.21-7.09,17.36-9.3,4.13-1.28,9.42-3.38,13.68-3.8q1.09-.94,2.16-1.9a15.5,15.5,0,0,0,2.59,2c-.54.21,5.06-3.31,4.92-3.33,1.16.17,3.08,6.64,4.36,7.64,3.76,2.95,9.91,1.6,14.67,2.36a162.27,162.27,0,0,0,18.43,2.25c8,.39,17.72,4.37,25.19,1.57,5.06-1.9,11.34-5,16.13-7.32,4.63-2.23,6.61-4,9.1-8.64,5.56-10.37,7.5-21.9,13.72-31.5,3.3-5.09,2.76-7.3,3.52-12.84.6-4.36.14-6.09,4.15-6.6,6.17-.79,9.78,7.23,12,10.91,3.86,6.5,5.58,9.08,13.56,9.09,5.9,0,7.3-1.05,11.05-5.19,3.21-3.54,3.71-10.2,6.63-12.94,4.38-4.12,4.55.79,8.49,5.29,3.16,3.61,10.94,11.16,16.14,11.66,21.66,2.08,24-50.71,24.85-63.76.75-11.23-.84-22,.18-33,.45-4.77-1-13.76,2.15-17.73,4.28-5.4,10.16-3.27,13.86,1.2,6.61,8,.27,16.54,3.33,24.7,1.69,4.52,5.26,6.92,6.51,12.14.78,3.23.29,6.14.77,9,.53,3.18,1.6,4.41,2.6,7.57,1.7,5.36-.43,9.5.26,14.66.2,1.53,3.25,10.94,4,11.69,4.55,4.7,7.43-5.1,7.16,5.5-.13,5-4.34,12.08-5.12,17.57-2.42,16.95,4.13,16.39,18.12,21.35,4.66,1.65,5.2,4.73,9.78,7,5.44,2.65,14.29,2.61,20.26,2.79,5.24.16,9.49.26,14.34-1.5,7-2.55,5.24-4.1,7.73-9.82.91-2.09,4.53-7.23,6.49-7.56s4.86,1.84,6.71,2.81c1.46.77,9,7,9.11,6.94,1.69-.11,1.07-5.17,2.43-6.18,2.44-1.8,6-.39,8.95,1.31,9.45,5.36,13.94,11.77,17,21.17,3.67,11.22,11.9,15,21.86,21.1,4.43,2.72,16.32,15.53,21,12.32,3-2,.27-24.63.09-28.27-.35-7.15-2.75-15.16-2.8-22.89-.08-11-5-21.53-4.13-33.12.38-5.07,2.48-9.88,2.11-14.9s-1.89-9.2-1.05-14.66c1.47-9.54,2.8-17.91,2.65-27.5-.09-5.52,3.47-24.33,8.82-27.41,6-3.43,5.65,5.39,5.48,9.76a134.33,134.33,0,0,0,2.94,33.1c2.09,9.59,1.91,19.08,4.93,28.46,4.1,12.72,10.11,23,16.27,34.74,9.38,17.83,11.46,40.29,29.58,50.72,7.44,4.28,15,5.6,23.13,6.85,5.05.78,1.67-.53,6.41,2.15,4.1,2.32,6,7,9.66,9.85,7.12,5.51,16.49,6.92,24.14,11.21,2.59,1.45,19.9,12.59,22.4,6.72,1.57-3.69-2.1-2.13,2.49-5.75.71-.56,5.8-1.2,6.86-1.68,8.06-3.63,15.47-11.64,21.73-17.78,4.78-4.69,8-17.05,15-18.55s9.15,4.23,5.17-4.79c-6.69-15.14-.51-3.86,8.49-10.1,3.4-2.36.33-6.75,2-8.22,2.59-2.28,2.32.31,4.51-.78,2.66-1.33,10.08-3.95,13.46-3.53,5.68.7,8.17,2.53,14.82,1.45,9.84-1.61,10.83,0,17.89,5.67,2.76,2.21,12.83,12.74,16.43,11.82,5.5-1.41,5.71-13.6,9.83-17.31,7.2-6.48,10.42,7.93,13.49,14.17,4,8.18,9.4,10.4,15.17,16.92,4.23,4.79,4,5.44,9.84,7.22,4.66,1.42,8.06.71,12.8,2.9,9,4.16,13.7,9.78,24.21,9.7,8.22-.07,11.74-4.67,19.44-6.6"/><path class="cls-3" d="M0,407.19c8.28-.61,16.6-6.06,24.75-7.43,4.65-.78,8.49-.83,13.31-1.22,7.22-.59,6.7-.91,12.52,2.08,7,3.57,4.58,2.34,11.06-.4,5.25-2.22,9.51-2.37,15.17-2.82,7.74-.62,13.27-3.73,21.68-4.94C108.9,391,117,391,127.3,387.83a72.27,72.27,0,0,0,29.81-18.58c2.92-3.09,6.43-6.55,8.71-10.19,2-3.12,2.42-11,4.15-12.88,3.71-4.1,19.78,4.22,26.74,5.73,3.28.71,8.46,2.23,11.46-.14,2.13-1.69,1.34-8.65,4.12-9.05,1.27-.18,2.72,8.22,3.32,8.88,3.66,4.06,7.86,2.41,12.91,1.27,11.68-2.64,17.16-11.51,23.85-20.9,5.84-8.19,14-16.51,16.83-26.19.54-1.83.59-12.17,4-12,2.94.17,3.57,11.85,3.73,13.87.93,11.71-2.64,22.74-3.54,34.18-1,12.68,15.17,9.56,25,13.34,9.27,3.57,17.49,8.7,27.09,11.27,5,1.33,10.35,2.45,15.44,3.43,3.73.72,12.93,3.67,16.12,3,6.66-1.32,9.91-19.26,15.06-12.35,1.42,1.91-2.18,4.27.34,5.72,1.55.89,7.18-3.94,9.3-3.69,5.89.69,2.47,1,3.94,7.17.43,1.81,2.54,2.5,2.75,4.19.18,1.47,0,5.07.55,6.48.84,2.32-1.51,1.82-.21,3.66,1,1.46,6.18,2.39,8,3.3a73,73,0,0,1,13.79,9.11c4.06,3.33,6.88,6.45,11.89,8.43,4.2,1.66,10.27.53,13.78,2.62,4.29,2.55,6.83,11.07,10.11,14.45,5.06,5.22,17.51,8.62,24.67,10,5.75,1.11,7,2,9.46-3.43s-1.15-6.3-3.37-11.56c-1.49-3.54-1.84-7.3-2.19-11.1-.43-4.71,1.59-10,1.28-14-.63-8.13-6.87-15.68-8-23.65-.57-4.11,1.41-9.44,1.44-13.69,0-5.41-2.57-11.74-1.43-17,2.68-12.31,5.76-.55,8.86,4.39,3.43,5.44,3.92,6,4.21,12.58.21,4.75.38,7.7,3.36,11.49,5.22,6.62,11,8.59,14.63,16.55,4.85,10.75,9,17.83,19.2,22.76,2.66,1.29,5.72,3.95,8.84,4.93,1.7.53,6.14,1.52,7.66,2.52,2.11,1.39,1.91,3.57,3.57,4.86,2,1.52,2.47-.17,4.76,1.29,6.25,4,9.78,10.12,15.31,14.84,5.33,4.55,4,1.47,6.73,9.75,1.29,3.9,1.52,6.45,5.66,7.84,4.3,1.44,12.8-1.53,17.14-1.1,2.67.26,7.45,2.09,9.94,2.18,5.62.22,5.5-3.28,10.17-7.39s9.56-4.94,15-7.41c10-4.52,18.36-13.16,25.23-21.55,5.62-6.85,12.35-12.46,18.62-18.5,4.81-4.64,13.08-8.56,17-13.47,3.73-4.67-1.05-14.52.82-16.68,1.61-1.85,12.13.61,14.22,1.78,5.18,2.9,5.93,9.19,9.14,13.58,9.85,13.49-.31-5.69,3.32-6.93,2.14-.73,7.9,7.62,9.84,8.78,5.12,3,2.33,1.8,8,0,3.29-1.06,7.95-4.88,11.35-4.06,2.42.59,3.44,5.2,5.5,6.33,4.24,2.32.37,2.95,3.52,2,1.89-.55,2.19-5.69,5-5.29,2.67.38,1.6,8.69,3.2,10.88,4.55,6.22,16.33,5.19,22.63,8.08a132.93,132.93,0,0,1,13.1,7.45c3.23,2,4.89,5.36,7.69,7.21,5.75,3.82,11.7,3.15,18.19,2.58s16.64.45,22.16-2.24"/><path class="cls-3" d="M0,210.1c4.25,2.84,7,17.39,11.45,18.52,7.69,2,7.94-14.82,8.23-17.91,1.18-12.61,14.05-19.9,19.45-32.42,3.7-8.59,1.21-17.6,12-20.29,5.92-1.47,12.55-2.12,18.32-3,3.2-.46,7,1.6,10.37-.12,3.81-2,1.38-4.21,4.54-7.3,1.49-1.45,5-1.7,6.09-3,2.26-2.63,1-6.84,3.42-9.15,5.53-5.25,10.93,0,16.31.08,6.08.09,10.76-7.55,16.45.59,3.2,4.57.43,15.9-.26,21-.85,6.28-4.25,11.49-5.35,17.55-.67,3.7-.41,9.68-.86,14.52-.32,3.44-1.81,4.38-1.24,7.89.49,3.06,3.85,4.17,4.2,8,.82,9-6.37,13.91-11.23,19.26-2.14,2.36-7.68,14.83.46,14.42,2-.1,11.18-15.78,13.82-18.26,6.15-5.78,14-7.85,18-15.78,1.94-3.89,1.2-6.78,2.29-10.53,1.78-6.12,0-2.94,4.27-5.71,5.7-3.68,12-4.05,18.86-3.12,8.16,1.12,15,2.49,23.41,1.61,4.31-.46,17.22-.19,19.84-3.4,4.45-5.47-3.31-12.19-2.88-17.79.55-7.26,4.35-10.26-1.34-16.16-1.76-1.82-4.78-1.33-5.18-3.81-.35-2.17,4.63-5.94,5.38-8.2,2.16-6.44-3.61-12.92-5.66-19.2-3.12-9.56.38-15.25.86-25.25.54-11.12-7.36-10.55-9.66-20.23-1-4.3-1.42-7.77-2.74-11.94-1.21-3.8-2.47-6.58-1.18-10.65,1.67-5.25,5.56-5.59,5.09-11.95-.14-1.92-4.46-8.05-3.29-9.55,2.17-2.78,12.67,3.69,15.69,5.12,2.51,1.19,5.43,2.44,7.91,3.64,1.6.77,3.09.4,4.7,1.42,2.1,1.33,2.58,4.14,4.58,5.35,10.08,6.1,20.44-7,32.31-1.57,4.78,2.17,10.42,8.81,14.06,11.38.16.11,1.89-1,2.25-.76,1.44,1,1.13,3.23,2.15,4.46,2.6,3.16,3.83,6.82,6.29,9.92,7.84,9.87,19.52,24.84,23.23,37.91,2.13,7.51,4.3,11.58,8.45,18.05.91,1.41-.45,3,.62,4.1,3.4,3.45,9.35,4.16,12.89,7.62,4.3,4.18,8.45,11.61,7.92,17.67-.42,4.8-5.46,8.28-5.61,12.91-.17,5.29,3,5.21,5.72,8.58,4.26,5.23,8.7,10.84,10.31,17.39,2.24,9.11,3.43,13.89,12.82,17.36,6.35,2.34,10.17-.39,17-1.63,10.15-1.83,11-3.87,8.22-14.58-4.34-16.84-18.42-32.72-20.27-50.35-1-9.89,5.62-21.17,8-30.76,2.85-11.56,5.34-11.25,14.29-18,8.35-6.29,6.67-12.42,7.91-21.06,1-6.83,8.76-11.52,5.69-16.86-3.24-5.66-15-4-14.93-13.69,0-.7,2.49-1.79,2.73-2.65.71-2.51,1.69-5.47,1.05-8.4s-3.16-4.66-2.69-7.28c1.46-8.22,8.09-3.59,12.91-6,4.08-2,11.16-13.73,11.75-18.15"/><path class="cls-2" d="M0,428.75c11.35-3.61,28.9-5.09,40.72-4.43,6.65.37,12.78,2.71,20,1.26,7.06-1.41,14.14-3.09,20.88-4.74,11.58-2.84,24.9-5.73,36.82-5.35,13.48.43,31.83-.74,43.58-9.45,2.17-1.6-.8-3,.39-4.06a36.19,36.19,0,0,1,8.59-5.1c7-2.94,14-1,16.89-7.84,3-7.15-1.12-10.93,6.49-5,5.79,4.51,7.81,10.27,14.84,2.23,3.83-4.39,2.82-9.28,8.38-9.6,6.6-.38,10.64,6.23,17.6,3.36,4.47-1.84,12.14-14.67,15.67-14.66,5.51,0,3,8.5,3.23,12.86.43.28,6.41-1.11,4.92-1.57a91.38,91.38,0,0,1,9,3.57c7.11,3.21,13.47,4.86,20.17,6.88,6.88,2.07,14.15,4.83,21.44,6.69,4,1,8.06,1.06,11.94,2.26,5,1.55,9.24,5.52,14.25,7.21,5.74,1.94,13.37,1.46,17.74,1.62,1.53.05.21-2.48,2.88-1.93,3.57.74,3.7,5.76,8,6,1.58.1,4.65-2.16,6.27-2.11,4.6.15-.13.27,4.87,2.79,7.78,3.93,15,8.61,23.11,11.85,6.94,2.76,15.92,4,21.69,8.62,3.88,3.08,8.65,9.24,11.81,13,4.12,5,7.07,7.12,12.46,10.38,8,4.8,12.7,12,21.33,16,5.7,2.62,15.37,8.6,21.5,7.72,4.8-.69,8.45-4.12,13.85-4.76,6.28-.74,16-2.37,18.51-9.57,1-2.84-2.79-17.68-4.5-19.79-.83-1-4.72.58-6.42-.63-2-1.39-4.07-4.3-5.37-6.27-2.43-3.68-2.39-8.66-3.81-12.63-1.23-3.41-5.69-7.64-.74-7.53,3.1.07,7.08,7.4,9.18,9.11,4.32,3.53,8.44,3.45,13.17,5.91a41.33,41.33,0,0,1,10.3,7.58c2.94,2.87,4.87,6.64,7.72,9.45,2.48,2.45,5.68,3.34,8.11,5.74,5,4.89,6.15,14.15,10.35,19.78,6.68,8.94,11.72,2.41,20.06-.33,8.63-2.84,16.93.37,25.72-2.87,6.57-2.43,13.1-4.75,19.66-7.14,14.62-5.32,26.24-13.4,37.75-23.68,8.87-7.92,15.94-21.17,25.93-27.41,2.88-1.79,5.9-2.54,8.73-4.42.74-.49.87-4.86,2.69-5,2.86-.19,3.58,7.77,5.75,8.63,4.9,1.93,2.69-3.13,7.65-3.37,4.18-.2,3.33,3.64,6.35,5,2.27,1,5.94.73,8.41,1.46,8,2.36,7.95,7.23,17.11,8,1.65.15,3.39-1.46,4.75-1.14,1.87.44,2,4.09,4,5,2.81,1.17,6.23-.31,9.74,1.28,2.79,1.27,5.17,4.75,7.93,6,6.39,2.89,11.56,1.5,16.24,6.28,3.35,3.42,4.79,6.18,9.19,8.87,14.43,8.84,30,7.79,46.31,5.95"/><path class="cls-2" d="M0,445.49c5.37-2.7,17.61-1.37,23.58-1.7,4-.22,9.65,1.27,13.33-.2,2.12-.84,3.38-5.87,5.75-5.09,1.92.63.58,5,2.22,5.75,2.79,1.21,7.16-.24,10-.77,8.11-1.54,15.83-4.15,23.75-6.32,19.49-5.33,36.27-3.74,55.48.13,11.48,2.31,25.06,4.26,36.94,4.07,7-.11,13.12-1.08,19.58,2.75,5.86,3.47,10.17,10,17.28,12,8.52,2.4,24.72-10.61,29.35-19.07,1.26-2.3.56-10.73,2.73-10.82,5.11-.21,0,6.24,6.39,2.93,1.37-.71,3-4.88,4.59-6.08,3.26-2.51,3.5-1.68,7.89-2.49a68.28,68.28,0,0,1,21.53-.6c6.42.92,12,4.14,18.46,5.24,7.23,1.22,11,3.92,18.07,7.07,10.74,4.76,22,11.62,32.83,15.26s18.25,6,28.36,12.49A120.12,120.12,0,0,0,401,472c6.13,2.32,10.23,6.33,15.87,8.34,2.56.92,3.24-.51,5.94,1.07,2.23,1.3,2.77,5,5.9,5.91,1.84.51,4.18-2.11,6.32-1.83,3.57.47,4.87,2.76,8.33,3.5,6.66,1.42,11.81.48,18.61,3.21,6.24,2.51,12.64,4.88,19,7.56,2.61,1.11,7.31,4.55,9.82,5,2.68.45,3.08-2.21,5.45-2.23,1.71,0,8.82,2.62,9.87,1.9,2.41-1.66-.31-3.37,1.15-5.71,6.67-10.73,35.95,9.71,33.25-10.64-.5-3.81-8.5-13.93-.26-11.33-.9-.28,6.06,6.4,6,6.34,2.12,2.82,2.33,11.33,4.12,12.78,2.22,1.79,6.11-.66,9.58.3,4.51,1.25,7.33,5.15,12.4,6.12,10,1.9,20.79,2.56,30.83,1,3.35-.54,5.57-1.86,7.78-2.82,1.1-.48.81-1.78,2.31-2.31,2.44-.86,5.28.58,7.63-.47,3.86-1.73,4.29-6,7.61-8.45,2.56-1.9,7.44-2.37,10.46-4,6.39-3.38,11.54-8.18,17.89-12,3.54-2.14,6.05-4,10.18-5.16,2.5-.72,6.94-.54,9-1.67,1.31-.73,5.08-6.16,5.6-7.6.68-1.9-.77-7.82.59-8.76,5.12-3.53,9.52,10.85,12.7,10.93,3.43.1,8.88-18.54,17.31-13.47,2.78,1.67.84,13.15,6.85,16.57,6.49,3.69,14.41-1,19.58-5.12,2.51-2,.41-5.88,4.69-3.84,2.34,1.11,1.93,8.07,4.58,10.24,4.16,3.39,5.47-.08,8.74,1.23,0,0,4.69,5.11,4.92,5.29a7.59,7.59,0,0,1,5.1,1.42q1.95,2.58,4,5.09c4.06,3,6.66,4,11.84,5.41,8.91,2.45,17.31,1.09,26.38,1.86,6.31.53,12.12-1.25,18.4-.78,5,.37,9.74,2.49,14.58,3.75"/><path class="cls-3" d="M521,0c.6,4.51.33,9.27-2.37,12.91-1.74,2.34-5.41,2.83-5.41,5.55,0,3.79,9.73,5.83,11.51,8.43,3.61,5.3.06,8.21-.72,12.82-.46,2.71-.13,5.23-1,7.74-.49,1.44-4,6.21-4,6.25.19,11.93,15.26,2.3,20.56,4.73,1.74.8,3.6,3.53,5.25,4.22,2.38,1,5.64-.26,7.92.93,2.67,1.4,3.39,6.4,4.09,8.74.52,1.72-.53,3.25.17,5,.9,2.22,3.89,3.73,4.71,5.65,2.41,5.65-.57,5.35-2.26,11.57-1,3.78.17,5.21,0,8.72-.39,8-9.58,9.91-14.66,16.08-3.16,3.83-15.73,18.82-12.8,23,.74,1.06,22-1.38,24.35-2.54,8.4-4.21,10.29-9.56,21-10.07,1.67-.08,3-1.6,4.8-1.65,1.54,0,2.74,2.87,3.47,2.6,3-1.09.89-2.92,3.07-4.19,1.07-.62,8.05-2.66,9.55-1.61,4,2.76,1,4.13,1.2,7.81.15,2.91.76,5.2.76,8.06,0,6.18-1.55,4.64-4,10.13-1.84,4.07.48,9.29-1.2,13.83-1.58,4.27-5.27,9-8.24,12.33-5.86,6.64-14.61,16.63-9.89,26.72,1.78,3.8,6.82,7.05,12.32,3.25,2.22-1.54-.27-5,2.57-6.51,2.11-1.09,6.36,2.05,8.83,2.48-1-.17,14.92,1.55,11.9,3.41,3.35-2.06-4.52-14,1.57-19.9,3.79-3.67,2-.11,7.29-.18,5.5-.07,7.63-3.71,14.15-.2-4.69-10.25,7.75-7.86,13.78-8.33,7-.55,13.46-2,18.95-6.21,4.78-3.66,2.93-5.41,10.75-4.45a32,32,0,0,1,9.88,3.27c7.79,3.64,6,12.12,14.85,11.49,4.67-.33,5.71-.69,7.74-5.17.75-1.66,3.68-11.9,3.56-13.86-.12-2.14-2.38-4.2-3.34-6-3.08-5.76-3.33-10.81-5.38-16.81-3.06-8.94-.32-4.69,3.43-11.65a19.36,19.36,0,0,0,1.88-5.32,8.48,8.48,0,0,1-2.39-3.61,24,24,0,0,1,3.16-2.93c2.3-5.21,4.49-13,8.6-17,6.59-6.34,19.89-.38,26.36,4s9.75,12.83,15,18.65c2.71,3,7.05,4.73,9.08,8.49,2.12,3.93.14,7.3,2.84,11,4.68,6.32,13.65,3.46,17.6,11.48,3.26,6.62,1.28,16,6.37,21.65,1.37,1.51,6.31,1.88,8.49,4.08,4,4.06,3,6.44,4.07,11.75,1.11,5.71,2.88,8.1,7,12,.59.56,7.78,6.87,8.62,6.57,9.15-3.22-11.3-42.1-8.84-48.1,3.49-8.51,12.86-4.23,14.43-14.11,1.87-11.79-3.69-26.06,10-32.77"/><path class="cls-3" d="M0,175.15c4.28,2.36,11.92,11.36,15.83,3.48,2.78-5.62-3.37-16.14,5.45-20,3.12-1.37,8.5,2.72,10.06,1.9,4.07-2.16,1-11.26,4.63-15.57s15-10.25,20.48-11.52c5.85-1.37,14,.91,19.25-3.1,4.38-3.32,4.49-7.71,9.25-9.89-1.34.61,5.36,1,4.6.95-1.11,0,1.68-2.32,2.2-2.4,1.73-.25,2.64,3.32,4.8,2.2,2.78-1.44.66-4.11,1.41-5.58a5.38,5.38,0,0,1-.37-3.35q1.65-1.14,3.24-2.35c.72-1.19,2.88-5.52,4.4-6.2,10-4.47,25.47,10.83,30.58,16.81,6.16,7.2,7.05,25.64,5.92,34.55-.34,2.7-3.41,10.88-2.41,12.4-1.84-2.81,12.5-.84,11.5-.09,2.11-1.59.28-9.7,4.2-12.59,4.76-3.51,9.94-1.75,14.15,1.75,4.54,3.79,3.81,5.49,9.92,6.19,1.62.19,13.24,1.36,14.12.64,3.61-3-1.38-8.67-2.67-10.62-3.66-5.54-5.86-4.28-3.06-11.38,1.95-5,4.36-4.47,4.31-10.81-.05-6.14-2.53-12.1-2.51-18.39,0-6.62,5-12.69,3.7-18.76-1.09-5.24-7.18-10.26-10.86-13.78-8.49-8.12-.06-1.47,1.25-10.08.73-4.8-9.11-10.18-10.91-14.79-2.59-6.63.33-10.42,2.56-16.8,2-5.6,1.39-9.55,1.46-15.34,0-1.26,2.72-2.07,2.78-3.6.1-2.48-3.94-4.88-3.12-7.66,1.81-6.15,9.57,2,12.63,2.71,3.29.72,5-.52,8.2.21,5.15,1.17,5.58,6.25,10.42,7.39,5.29,1.24,6.71-2.94,12.46,0,6.41,3.33,6.92,8.1,15.32,8.9,3.5.33,6.61-1.18,10.37-.68,2.87.38,5.65,2.46,8.56,2.76,4.12.42,11.31.66,15.73.57,2.28,0,4.67-2.11,6.52-1.88,2.56.32,1.09,2.79,3.1,3.59,4.85,1.93,9.5,2.79,11.55,8.36,1.7,4.61-.91,9.81,1.79,14.44,2.94,5.06,6.09,4.69,8.38,10.25.81,2,.48,5.13,1.5,7,1.39,2.56,3.57,3,5.24,4.91,4.59,5.29,4.82,10.85,8.52,16.91,3,4.87,5.75,8.29,8.22,13.58,2.71,5.79,4.61,8.31,10.35,11.56,4.47,2.53,2.7,5,4.76,1.44,0,.08-1.72-9.55-1.75-10.91-.1-4.3-1.49-8.24,2.64-10.2,2.93-1.39,4.81,5.77,9-1.25,1.07-1.79,2.2-13.15,1.81-15.79-1-7-4.19-4.12.11-12,2.68-4.93,8-11.62,8.69-17.43.46-3.93-1.8-5.22-2.19-8.6-.47-4.12.54-6.86.76-11,.33-6.37-.66-12.05.78-18.31,1-4.17-.43-3.1,1.75-6.13,2.45-3.39,7.76-2.65,10.16-4.3A36.19,36.19,0,0,0,378.18,0"/><path class="cls-3" d="M549.24,0c-.77,3.43-1.19,7.53-2.9,10.67-1.8,3.29-6.29,4.45-7.71,6.91-1.78,3.08.31,7.53,3.11,10.76,2.47,2.86.94,1.48,4.22,3.27,1.88,1,4.56,1.21,6.7,2.5s4.26,5,5.52,5.64c.28.14,6,.65,5.15.15,1.58.91,2.59,3.61,3.38,4,2,1,3.44-.1,5.83,1.91,2,1.67,9.35,9.48,9.93,10.91,2.23,5.46-3.47,8.11-4,13.47-.32,3,2.14,5.57,1.8,8-.31,2.21-3.83,6-4.54,8.2-1.72,5.39-1.59,12.53,4,15.28,4.31,2.11,11.49-1.44,15.72-2,4.85-.63,10.26,1.48,14.74.75,3.21-.53,4.17-2.48,7.22-3.17,4.47-1,15.81-.59,19.64,2.2,11.28,8.24,2.55,25.63-3.17,33.22-4.61,6.1-8.84,12.62-13.95,18.66-2.93,3.47-10.38,11.06-9.87,15.9,7.14-6,14.06-8.84,22.73-11.82,3.66-1.26,9-1.92,12.27-3.41,2.59-1.19,3.14-2.89,6.13-4.57,4.32-2.44,5.3-.26,9.46-1.11,4.68-1,9-4,14-4,7.77,0,6.61,2.16,9.51,7.92.88,1.74,6.9,13.82,10.58,6.44,2.87-5.75-10.82-17.69-13.31-20.79-6.52-8.11-4.55-18.22.84-25.5,2.63-3.56,5.56-5.95,8-10.67,4.23-8,.75-19.45,11.48-24.65,6.75-3.27,14.63.26,20.41.27,3.92,0,5.22-3.74,11.05-2.18,3.44.92,6.39,4.63,10,5,3.81.41,6.23-3.28,10.16-3s6.47,4.56,8.91,6.88c7.28,6.94,11,15.84,17.09,23.75,2,2.58,6,5.77,7.4,8.51,1.77,3.33-.25,8,1.76,11.23,1.5,2.43,6.7,3.73,8.89,6,2.84,2.92,3.1,6.74,7.25,7.92,2.14.61,7.81-.46,9-2.53,2-3.64-1.69-4-3.57-6.08-2.23-2.47-6.54-5.46-7.59-9-2.11-7,4.72-12.47,7.56-18.06,2-3.88,2.14-6.86,5-10.46,4.07-5.21,5.58-3.54,3.44-8-1.56-3.27-7.33-7.65-9.6-11.41-2.94-4.86-7-9.32-9.36-14.49-4.82-10.68-5.76-21.91-9-32.62-1.39-4.54-1.48-11.25-3.24-15.28C785.11,6.63,779.9,4,776.07,0"/><path class="cls-3" d="M493.09,0c6.85,1.8,4.12,10.76,3.61,14.77-.94,7.44.16,7.36,5.9,13.87,1.26,1.43,5.9,5.07,6.12,7.08.29,2.64-1.61.88-2,4.22l-2,2.22q-2.16,1.65.32,2.77l2.81,1.85a1.9,1.9,0,0,1-1.19,2.29c.08,1.85-3,4-2.41,7.06.1.52,3.21,4.38,3.86,5.47,3.8,6.27,4.71,13.78,8.4,19.4,1,1.5-.78,2.45,1.09,3.28,3.33,1.47,6.93-2.56,9.94-3,6.39-1,10.38,1.6,12.27,8.41.74,2.66-.14,6-.05,8.46.1,3,1.28,3.9.62,7.25-1.29,6.56-9.21,14.86-13.94,19.42-7.36,7.08-12.36,13.18-12.59,22.3-.32,12.9,11.76,19.59,17.37,29.56.72,1.29.6,3.11,1.42,4.5.2.33,5,6.5,5,6.42.63,2.19-3.5,10.6-3.8,10,1.62,3.1,6.49-1.81,7.8-1.83,2.9,0,3.63,1.55,6.7,2.21,2.88.62,8.17-1.36,10.4.23,3,2.17,2.55,10.33,2,13.54-1.41,8.35-11.29,13.37-1.38,20.27,7.92,5.52,10.08-1.27,17.22-2.6,3.9-.72,8,2.1,10.85,4.22,6.4,4.69,4.13,6.64,7.18,12.75,4.95,9.91,11.73,2.36,17-2.67,6.16-5.94,11.55-12.86,17.58-18.89,3.21-3.2.62-2.63,5-4.13,2-.7,4.51.11,6.56-.59,3-1,4.75-4.65,8-5.84,7.29-2.66,19.32-.91,27.1-1,9.68-.08,18.4,1.78,28.17,3.4,4.54.76,21.18,5,23.62,2.35,3.89-4.28-1.75-21.22-2.13-26.45-.67-9.35,1.83-17.76,2.85-26.49,1.14-9.79-1.08-17.14,3.82-26,6-10.82,8.09.09,12.82,4.25,3.43,3,8.36,1.91,12.44,3.47,7.54,2.89,6.36,6.44,10,12.79,1.94,3.43,5.27,5.52,6.93,9,1.34,2.78.36,7.83,1.72,11.13,4,9.76,12.33,16.76,16.12,26.89,3.9,10.44,2.63,17,12.43,23.52s25.3,14.7,37.29,15.4"/><path class="cls-3" d="M465.94,0c5.26,1.46-.81,2.36,1.5,5.21,1.32,1.62,4.76,2.73,6.52,4.14,2.28,1.84,5,2.35,5.6,5.89.18,1.14-.82,3.3-.78,3.53a19.49,19.49,0,0,0-.62,3.56c.13,1,2.9,5.06,3.78,6.09,3.48,4.06,11,7.24,12,11.91.34,1.59-2.92,2.61-2.71,4.36.25,2.13,2.06,4.53,2.8,6.54,1.24,3.35,1.12,6.72,3.05,9.93,1.24,2.06,4.11,3.5,5,5.58,2.23,5.07-.8,8.77-.25,13.81.42,3.84,4.71,8.79,5.19,12l1.17.91q2.11,2.44-.94,3.4c-.05.72-2.7,1.23-2.55,4,.24,4.78,11.35,6,11.75,9.52.26,2.25-6.1,9.23-7.82,10.77-6,5.32-9.11,4.05-8.71,13.2,0,1.07,2.92,1.87,3,3,.1,1.87-2.24,4.18-2.75,5.93-1,3.31-1.41,3.52-1.89,6.79s-2,2-1.43,5.43c1,6.13,5.61,3.95,7.74,8.09,3.55,6.93-.63,5.23-2.23,11.23-4,15,14.46,8,15.65,21.14.35,3.87-4.36,10.41-3.2,14,1.59,5,11.47,7.07,15.19,9.1,4.7,2.58,8.23,4.56,6.91,11.28-1.2,6.12-9.31,7.31-10.57,12.33-.95,3.78,3.16,8.19,5,11.75,2.91,5.77,4.62,14.32,8.48,19.62,6.48,8.88,17.41-1.9,25.14-2.89-2.94.38,10.08,1.77,7.3.06,2.08,1.28,0-2.51,2.38,1,3.63,5.34-3.89,14.16.76,21.24,7.11,10.82,23.23,5.37,31.93-1.12,4.73-3.53,5.81-9.53,8.45-13.77s6.83-7.78,9.48-12.14c4.79-7.89,3.85-5.51,11.6-9.64,5.62-3,7.38-8.68,12-11.59,5.29-3.35,13.33-4.25,18.7-1.33,8.72,4.75,10.68,7.08,21,8,1.81.16,3.86.72,5.58.84,5.21.37,10.32-.4,15.74,0,2.49.17,5.08,1.92,7.69,1.84q3.53-1.13,7.11-2.08a8.78,8.78,0,0,1,5.85,2.78c8.55,2,8.32,1.17,12.2-8.17,1.12-2.7,1.22-4.8,3-7.38s9.18-4.91,10-6.61c1.43-2.94-7.49-9.91-4.13-14.49.63-.86,9-1.05,10.91-.43C769,220.38,775.11,236,778.41,243c5.87,12.43,11.76,18.23,25,21.38,12.2,2.92,26.06,8.69,38.5,8.94"/><path class="cls-3" d="M734.42,0c.64,3.18,13.65.9,16.84,4.7,1.2,1.43-.16,3.85,1.37,5.36,3.28,3.23,7.45,0,11-.1,8.83-.35,4.82,2.41,7.61,10.33,1.3,3.71,6,6.05,6.36,11.12.43,6.82-3.3,10.19-.71,17.64,2.06,5.93,5.84,14,9.93,18.86,3.6,4.25,8,5.58,10.18,11.34,1.6,4.17,1.53,13-.62,17-7.56,14.09-13-9.93-15.52-15-3.48-6.87-6.59-10.29-12-15.91-3.92-4.05-7-11.51-12.38-14.27-7.43-3.79-8.2,2.33-13.2,4.41-5.21,2.17-5.35-2.2-12.75-4.62-3.88-1.27-8.42-2.91-12.54-3.14-3.35-.18-6,1.5-8.75,1.48s-5.83-2.3-8.7-1.95c-3.88.48-5.07,4.93-9.2,4-5.16-1.16-8.07-12.47-7.9-1,.13,8.7,5.49,9.91-.52,17.08-1.1,1.31-3.32.8-4.23,2.47-1,1.88,1.11,2.36.75,4.27-.33,1.73.33,8.38-2.09,9.69-1.66.9-7.84-2.39-9.92-2.67-1.78-.24-3.58.56-5.39.1-2.18-.55-4.78-3.27-6.78-3.49-.69-.08-6.46,6.25-8.5,6.69-5.41,1.17-5.93-2.12-10.55-3.26-3.72-.92-11.26,0-15.15.26-2.33.15-4.39-.73-6.6.23-.74.32-.55,3.9-1,4-4.41,1.2-8.09-1.22-12.66-.28-1.43.29-11,6.35-12.64,1.55-1.28-3.81,4.71-6.15,4.28-10.85-.52-5.68-4.47-2.12-.79-8.29,1.54-2.58,4.6-5.86,6.17-8.52,2.7-4.56,8.07-8,10.36-12.07,3.06-5.49.64-15.22-4.91-16.8-3.89-1.1-8.44,2.35-12.59.67-4.4-1.78-3.59-7.54-7.67-9.68-5.35-2.81-1.7,1.68-7.86,2.48-2.26.29-8.66-5.88-10-4.84-1.76,1.4-.61,9.1-7.38,6.62-5.85-2.15-.57-4.09.38-6.77.76-2.15,1.87-4.6,2.68-6.72.68-1.77,2.44-2.7,3.11-4.7C565,4.64,561.79,3,564.85,0"/><path class="cls-3" d="M0,140.19c1.06,1.38,1.89,5.95,2.82,7.79,1.89-1.2,3.1-4.44,5.36-6,2.55-1.71,6-2.43,8.71-4.31,6.63-4.69,9.49-12.81,15.2-18.61,3-3,7.07-7.72,11.83-7.88,4.51-.15,8.56,5.78,12.74,5.39,10.57-1,3.85-11.18,5.85-17.92,2.27-7.66,4.73-16.79,7.65-24.36,1.54-4,3.14-5.49,5.75-8.22,2.06-2.16,3.83-4.5,6-6.92,0,0,7.47-8,8.21-3.65.5,2.95-4.33,3.4-4,5.89.61,4.31,3.54,2.05,5.91,3.63,3.62,2.41,4.35,4.74,7,7.81,5,5.8,11.09,5,16.37,9.35,5.72,4.65,9.28,11,16.62,14.42,1.53.71,4.56.71,5.58,1.31,3.59,2.14,3,3.87,5,6.24.24.28-.41,2,.17,2.6,3,3.08,3.78.48,6.63,1.65,3.17,1.3,6.28,2.82,7.85,6.49,2.68,6.25-5.66,14.37,4.34,16.2,9.06,1.66,3.19-9,6.76-15,2.06-3.44,7.78-3.95,9.58-7,1.95-3.31.27-5.5-.61-9.77-1.25-6-1.43-7.12-5.92-11.22-2.58-2.35-7.21-5.08-8.93-8.19.86,1.57-.92-8.09-1.27-6.33-.3,1.49.53-7,.93-3.31,0,.15,2.37-.84,2.34-1.14-.28-2.74-3.79-3.84-5.14-5.91-.22-.34-3,0-3.29-.74-.66-1.84,1.67-4.81,2.14-6.41,2.68-9.13,3.26-18.7,5-28,.93-4.89,1.68-7.23.57-12.18-1-4.6-8.52-11.54-7.33-15.95"/><path class="cls-3" d="M683.85,0c8.23,3.06,10.7,11.72,19.12,15,4.4,1.73,9.62.6,14.16,2,4,1.23,6.89,4.23,10.68,5.64,5.31,2,10.69.58,16,2.32,6.32,2.08,4.16.46,4.42,5.24,0,0-4.14,9.88-4.34,10-3.45,1.53-6.12-3.65-8.54-4.91A31.94,31.94,0,0,0,722.75,32c-2.87-.24-8.53,1.45-10.84.89-5.2-1.26-4.14-4.68-8-7.51-2.76-2-6.05-2-9.08-4.43C689.08,16.46,675.32,2.69,667,7.15c-10.64,5.7,1.18,26.14,1.59,33.46.33,5.87.75,5.62-5,7.88-5.92,2.33-1.9,2.87-7.68-.9-6.32-4.12-10.87-6.73-18.4-8.86-4.26-1.21-2.35-4.28-6.45-.83-2.59,2.18-2.66,13.14-2.56,16.27.19,6.16,4,15.46-5.49,13.05-2.42-.61-4.15-3-6.26-4.63-5.14-3.94-7.64,1-1.92-7.46,2.43-3.58,5.21-6.29,6.74-10.15,1.21-3,.78-7.55,2.7-10.21,4-5.53,12.2-8.49,12.1-17.28C636.32,11.61,628,5.78,628.81,0"/><path class="cls-3" d="M329.84,0c.59,3.69,4.62,4.38,5.53,7.4,1.21,4-1,5.08-.88,8.8.11,3.39,2.93,5.24,2.79,9.14-.13,3.64-2.87,7.12-3.47,10.76-.42,2.55,1,9.2.18,11.2-.93,2.18.46-.1-1.88,3-.67.89-11.59,7-13,6.65-7.14-1.89-2-12.64-3.29-17.42.11.4-2.27-5.21-2.21-4.87-.36-1.83.18-4.34-.26-6.86-.64-3.63-1-9.36-2.14-12.87C310.33,12,304,.89,301.95,0"/><path class="cls-3" d="M53.92,0C52.1,8.18,37.09,2.81,41.32,10.73c2.12,4,10.5,3.74,13.3,7.7,1.42,2,.29,9,.52,9.25,7.28,6.79,10.53-9.94,12.59-13C73.29,6.36,83.43,10.47,83.67,0"/><path class="cls-3" d="M806.56,0c1.3,2.93,4.82,5.18,5.88,8.28,1.57,4.61-.33,3.89,0,9.17.52,8.48,4.9,18.08,6.57,26.39.71,3.55,0,6.92,2.25,10,2.38,3.3,7.93,3.28,10.46,6.5,4.21,5.37-.08,14.24,10.18,16.58"/><path class="cls-3" d="M259.19,0c-.56,3.7.61,14.52-1.21,16.18-2.5,2.27-6.85-2-9.69-1.68-2.37.28-7.8,5.26-10.37,2.77C235.58,15,239,13.5,239.3,10.9,240,5.2,236.85,2.7,232.41,0"/><path class="cls-3" d="M0,55.41c4.18,2.85,3.84,8.94,7.93,12,4.83,3.67,8.11,1.17,10.32,7.66C22.23,86.8,7.47,90,0,94.45"/><path class="cls-3" d="M426.15,0c-4.3,7.23-4.56,16-8.91,23.19s-9.68,12.42-1.05,20.28c6.26,5.71,22.06,4.53,14.7,19.74-1.47,3-5.16,4.37-6.91,7.32-3.29,5.55-.1,2-.37,8-.41,9-3.17,18.24-5,27.25-.85,4.15.66,9.58-.61,13.26-1.59,4.61-7.39,8.2-10.28,11.86-10.22,12.94-20.91,30.51-15.46,48.51,3.47,11.48,9.79,16.83,9.6,29.56-.16,10.9-.88,21.64,3.2,32,1.95,5,8.26,25.6-3,15.85-7.88-6.81-8.05-18.62-17.38-24.77-6-4-11-3-17.74-2.53-8.6.6-19.18,1.66-27.14,4-3.2,1-6.42,3.62-9.45,1.25-2.08-1.62-3-13.88-3-16-.09-3.67.27-8.12.42-11.83.22-5.65,2.44-8.55,1.27-13.3-.46-1.86-3.38-6.21-5-7.82-.34-.34-3.18,1.53-3.45,1.3-1.49-1.3-1.46-3.61-2.54-5.13-6.44-9.09-2-18.94-7.15-28.35-1.24-2.26-5.72-8.56-8.25-10.26-4.07-2.73-7.22-.51-9.48-6.61-1.5-4.06.4-4.76-.09-8-.17-1.09,1-2.39.86-3.48-.22-1.44-4.9-1.75-4.6-3.1,1-4.44,9.67,2.57,8-5.54-.56-2.73-5.12-4.19-6.42-6.51-1.56-2.81-.46-1.78-1.43-4.61-3.79-11.08-8.62-22.94-16.62-31.9A39.11,39.11,0,0,0,268,69.69c-.84-.49-.35-2-.92-2.3-1.23-.63-3.1.95-4.24.41-8.34-4-12.66-7.28-23.31-5.88-7.86,1-9-.7-16.2-5.25-2.1-1.33-12-8.34-13.48-6.8-2.83,2.86,2,4.9,3.1,8.8,1.57,5.72-1.17,10.83.58,16.89,3.7,12.77-.63,25.39,2.78,38.59,1.09,4.23,3.14,8.34,4.84,12.27,3.69,8.49.22,9.4-.49,17.63-.27,3.13,2.69,8.83,3.1,12.31.64,5.41-1.18,5.9-1.85,10.12-1.31,8.22,8.59,24.35.94,32.49-3,3.23-9-.47-12,2.36-3.58,3.37.43,13.45-3,15.46-.22.13-13.72-1.21-14.72-1.44-6.41-1.54-8.15-3.19-15.43-3-3.37.09-10.49-2-12.9-1.24-2.21.67-7.68,9.05-9.63,11.87-3.65,5.28-3.54,10.14-5.83,16-3.25,8.33-4.79,4.05-13.88,6.33-6.81,1.7-11.64,2.54-15.46,8.94s-6.19,15.18-8.34,22.25c-1.12,3.69-.93,10.63-5.89,10.78S98.93,276.66,98,273c-1.81-6.77-2.07-12.62-2.29-20.06-.18-6.18.15-10.66-.39-15.74-.3-2.88-3-5-2.28-8.55,0-.2,4.07-5.85,4.29-6.26,4.56-8.59-1.52-10-.14-19,1.12-7.29,6.39-14.27,7.3-22,.34-2.93-.25-5.73-.12-8.62.08-1.64,2.49-9.44,2.22-10.49-2-7.79-12.39-1.06-16.72,1.65-2.44,1.53-4.66,3.51-7.1,5a16,16,0,0,1-4.52,3.54q-1.43-.42-2.89-.73c-1.68,1-3.21,7.13-6.08,8.93C64,184,57.63,182.9,53.1,188.34c-3.56,4.27-3.16,9.61-5.34,14.36s-3.25.86-4.36,6.59c-.33,1.72.93,4.52.58,6.73-1,6.12-5.2,13.42-7.26,19.4a45.59,45.59,0,0,1-7,13.73c-2.9,3.85-3.56,5.07-8.3,8.3C14.6,262.13,6.61,266.08,0,271.09"/><path class="cls-3" d="M292.74,130.1l-.49,2,.83.33.48-2.08-.1-.13C293.23,129.85,293,129.88,292.74,130.1Z"/><path class="cls-2" d="M0,463.05c14.64-.11,26.46.32,34.75.75,7.9.41,14.46.92,24.25.25,8.75-.6,13.63-.93,20-3,11.34-3.69,12.33-8,20.25-8.5,6.07-.4,6.22,2.07,18,5,8.68,2.16,15.73,2.6,26.25,3.25,12.12.75,11.06-.25,16.5.75,4.33.79,7.35,1.86,23.25,8,12.36,4.78,11.8,4.62,12.25,4.75,4.7,1.34,20.25,5.78,34.75-1.25,1.94-.94.51-.46,8.25-5.25,10.91-6.75,16.37-10.13,21.5-11.5,5.4-1.45,9.94-1,19,0,8.37.89,14.38,2.62,25.25,5.75C311,464,314.4,465,318,466.8c8.25,4.15,8.66,7.1,14.5,10.25,10.29,5.55,14.47-.66,27,3.5,10.53,3.49,8.14,8.07,22,14.25,1.24.55.64.24,23,7.25,8,2.49,10.56,3.33,15,4.5,8.39,2.22,9,1.87,16.5,3.75,12.6,3.17,13.2,4.76,24.25,7.25,4.86,1.1,8.57,1.65,16,2.75s12.32,1.83,18.25,2.25c9.34.66,10.45-.22,30-.5,9.12-.13,15.67,0,17.75,0,4.53.07,11.66.2,20.25.75,10.24.65,10.9,1.17,19,1.75,21.05,1.52,31.58,2.28,38.75-2.5,2.64-1.76,6.61-5.19,13.75-7.75a53,53,0,0,1,7.5-2c17.22-3.77,18.14-6,29.25-7.5,7.06-1,6.42-.06,15.25-1.25,8.34-1.13,10.14-2.12,14.75-1.5,5.54.74,6.33,2.63,12.5,3.75,4.65.84,7,.29,12.75,0,5.52-.28,17.5-.89,28.75,2.5,7.25,2.18,5.14,3.3,13.5,6.25,14.83,5.23,28.81,4.31,33,4,5.63-.42,7.21-1.12,13.75-1.25a142.41,142.41,0,0,1,16,.75c4.46.4,8.19.87,10.89,1.25"/><path class="cls-2" d="M0,494.55a64.92,64.92,0,0,1,28-1c15.19,2.94,20.57,10.2,34,9,7.45-.67,6.6-3,18-5,5.91-1.05,9.41-1,26-1,14,0,20.94,0,25,0,23.1-.11,22.82-.73,29,0,12.84,1.52,12.81,4.06,27,6,8.94,1.22,15.74,1.14,27,1,17.81-.22,18.05-1.7,27-1,14.9,1.16,12.93,5.16,31,8,9.31,1.46,10.25.47,37,3,3.61.34,6.91.67,10,1,12.22,1.29,18.33,1.93,25,3a201.81,201.81,0,0,1,27,6c10.58,3.16,9.53,3.88,18,6a180.91,180.91,0,0,0,24,4c7.84.89,7.77.16,11,1,9.41,2.44,10.08,7.22,18,10,5.5,1.93,5.77-.17,22,0,8.14.09,8.69.62,19,1,8.84.32,14.06.14,23,0,10-.15,24.08-.36,35,0,21.74.73,19.35,3.36,45,5,14.59.93,29.18,1,42,1,7,0,9.75-.06,20,0,16,.09,16.86.32,22,0,9.64-.6,16.52-1,25-4,8.72-3,10-5.58,18-7a48.16,48.16,0,0,1,16,0c10.59,1.56,10.9,4.63,21,7,3.58.84,11.77.9,28,1,10.38.06,15.57.09,17,0,14.17-.92,18.71-3.65,31-4a87.67,87.67,0,0,1,15.89,1"/><path class="cls-2" d="M0,537.55l43-3h0a110.91,110.91,0,0,1,18,0c31.15,2.54,43.61,17,59,10,6.53-3,8.33-7.39,17-9,3.89-.72,5.31-.16,17,0,14,.19,12.72-.6,16,0,10.9,2,12.11,8.37,23,12,5,1.66,7.54,1.27,21,1,14.28-.29,27.43-.17,33,0,23.19.71,20.37,5.63,45,7,15.15.84,22.8-.66,40,1,2.36.23,7.22.74,14,1,10.32.4,13.17-.23,19,0,9.74.38,10.22,2.45,27,6a165.65,165.65,0,0,0,27,4c3.43.19,3.51.07,25,0,9.75,0,14.62,0,17,0,12.44.24,14.28,1.09,29,2,15.51,1,29,1,38,1,7.36,0,8.86-.09,16,0,10.95.14,18.21.24,26,1,13.09,1.28,12.56,3,27,5,17.37,2.43,50.76-1.33,80-2,10.06-.23,17.09-.39,27,0,10.72.42,12.91,1,22,1,9.47,0,10.25-.68,23-1,1.93,0,3.36-.07,21,0,20.41.08,21.61.12,26,0,9.86-.27,11.51-.68,21-1,10.59-.35,19.21-.19,24.89,0"/><path class="cls-2" d="M0,618.55c4.92-.12,12.58-.22,22,0,13.58.32,18.67,1,30,1,16.71,0,14.53-1.58,23-1,17,1.17,19.41,7,40,10a93.1,93.1,0,0,0,23,1c12.65-1.11,14.21-4.09,25.67-6,13-2.16,14.17,1.13,41.33,2,2,.06,1.07,0,27.33,0,16.35,0,24.52,0,30.67,0,41.66.11,39.55.86,45.33,0,20.59-3.05,22.65-8.85,37.33-7.33,11.1,1.15,11.8,4.66,26,6.67s16.27-1.09,31.33,0c19.3,1.4,17.07,6.57,34.67,7.33,10.23.45,13.21-1.2,36-1.33,7.8,0,7.1.15,11.33,0,14.92-.53,20.53-2.84,32.67-4,3.15-.3,2.26-.1,24.67,0H577q16.33,0,32.67,0c10.79,0,12.39,0,17.33,0,16.69.11,25.16.2,31.33,1.33,9.06,1.67,10,3.27,16.67,3.33,8.15.08,12.71-2.28,18.67-4,11-3.17,23.54-1.44,48.67,2,17.08,2.34,15,3.27,22,3.33,14.43.13,18.17-3.88,37.33-4.67.91,0,.48,0,18.67,0h21.56"/><line class="cls-2" y1="660.64" x2="841.89" y2="660.64"/><line class="cls-2" y1="692.19" x2="841.89" y2="692.19"/><line class="cls-2" y1="723.73" x2="841.89" y2="723.73"/><line class="cls-2" y1="755.28" x2="841.89" y2="755.28"/><line class="cls-2" y1="786.83" x2="841.89" y2="786.83"/><line class="cls-2" y1="818.38" x2="841.89" y2="818.38"/><line class="cls-2" y1="849.93" x2="841.89" y2="849.93"/><line class="cls-2" y1="881.47" x2="841.89" y2="881.47"/><line class="cls-2" y1="913.02" x2="841.89" y2="913.02"/><line class="cls-2" y1="944.57" x2="841.89" y2="944.57"/><line class="cls-2" y1="976.12" x2="841.89" y2="976.12"/><line class="cls-2" y1="1007.67" x2="841.89" y2="1007.67"/><line class="cls-2" y1="1039.21" x2="841.89" y2="1039.21"/><line class="cls-2" y1="1070.76" x2="841.89" y2="1070.76"/><line class="cls-2" y1="1102.31" x2="841.89" y2="1102.31"/><line class="cls-2" y1="1133.86" x2="841.89" y2="1133.86"/><line class="cls-2" y1="1165.41" x2="841.89" y2="1165.41"/><path class="cls-3" d="M13,0c1.45,3.53.71,5.85,2.1,9.39.46,1.17-.16,3.52,1.1,4.59,4.31,3.65,4.52-1.24,8.72-1.58s1.86.33,5.52,2.42c5.2,3,11.41,8.61,11.45,15.48s-4,15.1-2.8,20.85c1.56,7.46,8.17,10.26,1.38,17.69-2.63,2.88-8,3.42-9.33,7.25C29.87,79.66,33,81.14,32.5,85,31,96.07,12.88,96.58,11.74,106.86c-.31,2.84,3.49,11.43,6.46,11,.92-.14,8.21-8.65,9.3-10.08,1.32-1.72,1.77-5.95,3.85-7.41,2.93-2.06,2.95.84,5.09-.22a17.54,17.54,0,0,0,7.42-6.83c.63-1.12.39-5.62,1.19-7.45,1.16-2.66,4.25-3.63,5.27-6.64,1.57-4.65-2.28-7.71.81-12,2.91-4.07,8.34-3.4,10.55-9.13,3-7.91,2.43-10.56,7.9-17.84,4.87-6.47,13.16-20.12,23.55-15.9,4.42,1.79.69,2.89,3.64,5.11,3.89,2.93,9.08.88,13.41,2.61,1.3.52,9.47,7.28,9.89,8a74.68,74.68,0,0,1,.32,8.85c-.12,1.92-3.79,7.39-2,9.21s4-.92,6-.37c4.25,1.18,9.5,1.08,11,6.84,1.4,5.19-2.37,4.5,1.4,9,3.94,4.7,5,2.5,6.93,9.27.81,2.8-1.2,5.38,1.45,7.79,2,1.85,4.8-.27,6.86,1.19,5,3.53.13,9.43,6.2,11.28,15.65,4.77-4.54-18.6-5.44-21.05s.06-5.33-.72-7.49c-1.16-3.23-4.42-4.86-5.64-7.65-1.68-3.83-1.58-2.91-1-6.61.48-2.88,6.26-7.36,6.38-9.82.17-3.61-3.54-5.83-4.5-10.25-.81-3.76,1.88-6.8,2.3-9,.48-2.51,1.89-9.6.93-12.78-.81-2.68-3.14-3.91-4.59-6.11-4.89-7.4-.44-5.61-2.1-12.31"/></svg>