<?xml version="1.0" encoding="UTF-8" standalone="no"?>
<svg
   id="Livello_1"
   data-name="Livello 1"
   viewBox="0 0 847.07756 236.03496"
   version="1.1"
   sodipodi:docname="Titolo-01.svg"
   inkscape:export-filename="Titolo-011.svg"
   inkscape:export-xdpi="104.08719"
   inkscape:export-ydpi="104.08719"
   width="847.07758"
   height="236.03497"
   inkscape:version="1.4.2 (ebf0e940d0, 2025-05-08)"
   xmlns:inkscape="http://www.inkscape.org/namespaces/inkscape"
   xmlns:sodipodi="http://sodipodi.sourceforge.net/DTD/sodipodi-0.dtd"
   xmlns="http://www.w3.org/2000/svg"
   xmlns:svg="http://www.w3.org/2000/svg">
  <defs
     id="defs19">
    <clipPath
       clipPathUnits="userSpaceOnUse"
       id="clipPath19">
      <rect
         style="fill:#000000;stroke-width:1.00157"
         id="rect20"
         width="842.98206"
         height="254.19151"
         x="1.2968955"
         y="2.593791" />
    </clipPath>
    <clipPath
       clipPathUnits="userSpaceOnUse"
       id="clipPath20">
      <rect
         style="fill:#000000;stroke-width:1.00157"
         id="rect21"
         width="842.98206"
         height="254.19151"
         x="1.2968955"
         y="2.593791" />
    </clipPath>
    <clipPath
       clipPathUnits="userSpaceOnUse"
       id="clipPath21">
      <rect
         style="fill:#000000;stroke-width:1.00157"
         id="rect22"
         width="842.98206"
         height="254.19151"
         x="1.2968955"
         y="2.593791" />
    </clipPath>
    <clipPath
       clipPathUnits="userSpaceOnUse"
       id="clipPath22">
      <rect
         style="fill:#000000;stroke-width:1.00157"
         id="rect23"
         width="842.98206"
         height="254.19151"
         x="1.2968955"
         y="2.593791" />
    </clipPath>
    <clipPath
       clipPathUnits="userSpaceOnUse"
       id="clipPath23">
      <rect
         style="fill:#000000;stroke-width:1.00157"
         id="rect24"
         width="842.98206"
         height="254.19151"
         x="1.2968955"
         y="2.593791" />
    </clipPath>
    <clipPath
       clipPathUnits="userSpaceOnUse"
       id="clipPath24">
      <rect
         style="fill:#000000;stroke-width:1.00157"
         id="rect25"
         width="842.98206"
         height="254.19151"
         x="1.2968955"
         y="2.593791" />
    </clipPath>
    <clipPath
       clipPathUnits="userSpaceOnUse"
       id="clipPath25">
      <rect
         style="fill:#000000;stroke-width:1.00157"
         id="rect26"
         width="842.98206"
         height="254.19151"
         x="1.2968955"
         y="2.593791" />
    </clipPath>
    <clipPath
       clipPathUnits="userSpaceOnUse"
       id="clipPath26">
      <rect
         style="fill:#000000;stroke-width:1.00157"
         id="rect27"
         width="842.98206"
         height="254.19151"
         x="1.2968955"
         y="2.593791" />
    </clipPath>
    <clipPath
       clipPathUnits="userSpaceOnUse"
       id="clipPath27">
      <rect
         style="fill:#000000;stroke-width:1.00157"
         id="rect28"
         width="842.98206"
         height="254.19151"
         x="1.2968955"
         y="2.593791" />
    </clipPath>
    <clipPath
       clipPathUnits="userSpaceOnUse"
       id="clipPath28">
      <rect
         style="fill:#000000;stroke-width:1.00157"
         id="rect29"
         width="842.98206"
         height="254.19151"
         x="1.2968955"
         y="2.593791" />
    </clipPath>
    <clipPath
       clipPathUnits="userSpaceOnUse"
       id="clipPath29">
      <rect
         style="fill:#000000;stroke-width:1.00157"
         id="rect30"
         width="842.98206"
         height="254.19151"
         x="1.2968955"
         y="2.593791" />
    </clipPath>
    <clipPath
       clipPathUnits="userSpaceOnUse"
       id="clipPath30">
      <rect
         style="fill:#000000;stroke-width:1.00157"
         id="rect31"
         width="842.98206"
         height="254.19151"
         x="1.2968955"
         y="2.593791" />
    </clipPath>
    <clipPath
       clipPathUnits="userSpaceOnUse"
       id="clipPath31">
      <rect
         style="fill:#000000;stroke-width:1.00157"
         id="rect32"
         width="842.98206"
         height="254.19151"
         x="1.2968955"
         y="2.593791" />
    </clipPath>
    <clipPath
       clipPathUnits="userSpaceOnUse"
       id="clipPath32">
      <rect
         style="fill:#000000;stroke-width:1.00157"
         id="rect33"
         width="842.98206"
         height="254.19151"
         x="1.2968955"
         y="2.593791" />
    </clipPath>
    <clipPath
       clipPathUnits="userSpaceOnUse"
       id="clipPath33">
      <rect
         style="fill:#000000;stroke-width:1.00157"
         id="rect34"
         width="842.98206"
         height="254.19151"
         x="1.2968955"
         y="2.593791" />
    </clipPath>
    <clipPath
       clipPathUnits="userSpaceOnUse"
       id="clipPath34">
      <rect
         style="fill:#000000;stroke-width:1.00157"
         id="rect35"
         width="842.98206"
         height="254.19151"
         x="1.2968955"
         y="2.593791" />
    </clipPath>
    <clipPath
       clipPathUnits="userSpaceOnUse"
       id="clipPath35">
      <rect
         style="fill:#000000;stroke-width:1.00157"
         id="rect36"
         width="842.98206"
         height="254.19151"
         x="1.2968955"
         y="2.593791" />
    </clipPath>
    <clipPath
       clipPathUnits="userSpaceOnUse"
       id="clipPath36">
      <rect
         style="fill:#000000;stroke-width:1.00157"
         id="rect37"
         width="842.98206"
         height="254.19151"
         x="1.2968955"
         y="2.593791" />
    </clipPath>
    <clipPath
       clipPathUnits="userSpaceOnUse"
       id="clipPath37">
      <rect
         style="fill:#000000;stroke-width:1.00157"
         id="rect38"
         width="842.98206"
         height="254.19151"
         x="1.2968955"
         y="2.593791" />
    </clipPath>
  </defs>
  <sodipodi:namedview
     id="namedview19"
     pagecolor="#ffffff"
     bordercolor="#000000"
     borderopacity="0.25"
     inkscape:showpageshadow="2"
     inkscape:pageopacity="0.0"
     inkscape:pagecheckerboard="0"
     inkscape:deskcolor="#d1d1d1"
     inkscape:export-bgcolor="#ffffff00"
     inkscape:zoom="0.77107216"
     inkscape:cx="426.03016"
     inkscape:cy="577.11849"
     inkscape:window-width="1920"
     inkscape:window-height="1168"
     inkscape:window-x="0"
     inkscape:window-y="0"
     inkscape:window-maximized="1"
     inkscape:current-layer="Livello_1">
    <inkscape:page
       x="0"
       y="0"
       width="847.07758"
       height="236.03496"
       id="page38"
       margin="10.375163 0 0"
       bleed="0" />
  </sodipodi:namedview>
  <title
     id="title1">Titolo</title>
  <path
     d="m 447.42,113.39 v -0.83 h -0.8 c -2.34,0 -4.68,0.1 -7,0.17 h -0.81 c -2.64,-0.16 -5.3,-0.19 -7.9,-0.13 -5.22,0.1 -10.37,0.35 -15.12,0.75 l -0.4,5 c -0.11,1.74 -0.25,3.52 -0.32,5.32 v 0.75 h 0.35 l -0.12,4 q -0.22,7.63 -0.35,15.4 c -0.08,5.17 -0.12,10.38 -0.07,15.59 0.05,5.21 0.07,10.4 0.19,15.58 v 0.83 h 0.8 c 3.42,-0.05 6.84,-0.17 10.26,-0.27 h 0.56 v -0.53 c -0.14,-5.13 -0.27,-10.26 -0.24,-15.39 0,-4.78 0.19,-9.55 0.34,-14.33 1.5,0 3,0 4.49,0 l 4.43,-0.09 q -0.25,7.22 -0.17,14.44 c 0,5.13 0.14,10.26 0.3,15.39 v 0.59 h 0.56 c 1.78,-0.06 3.55,-0.13 5.27,-0.24 l 5.06,-0.27 0.29,-7.47 0.24,-7.59 q 0.22,-7.63 0.35,-15.4 c 0.08,-5.17 0.12,-10.38 0.07,-15.59 -0.05,-5.21 -0.14,-10.5 -0.26,-15.68 z m -16.21,11.3 4.81,-0.1 q 0,2.09 0,4.19 c 0,1.45 0,2.89 0,4.34 -1.71,0 -3.42,-0.06 -5.12,0 l -3.92,0.1 c 0,-1.47 0,-2.94 0,-4.42 0,-1.48 0,-2.71 -0.05,-4.07 1.4,-0.01 2.84,-0.02 4.28,-0.04 z"
     id="path1"
     clip-path="url(#clipPath37)"
     transform="translate(5.1875819,-18.156537)" />
  <path
     d="m 411.58,133.91 v -1 l -0.86,0.07 -1.13,0.07 -3.19,-0.11 c 0,-1.52 0,-3 0,-4.53 -0.1,-5.22 -0.35,-10.37 -0.75,-15.12 l -5,-0.4 c -1.74,-0.11 -3.52,-0.25 -5.32,-0.32 h -0.75 v 0.82 c -0.21,5.13 -0.34,10.26 -0.25,15.39 l 0.08,4.11 -3.15,0.06 c 0,-1.33 0,-2.65 0,-4 -0.06,-5.21 -0.07,-10.4 -0.19,-15.58 v -0.83 h -0.8 c -3.42,0.05 -6.84,0.17 -10.26,0.27 h -0.56 v 0.53 c 0.14,5.13 0.27,10.26 0.24,15.39 0,1.53 0,3.07 -0.05,4.6 h -0.21 v 0.52 c 0,0.83 0.08,1.66 0.12,2.49 -0.07,2.59 -0.17,5.18 -0.25,7.77 q -0.29,7.7 -0.2,15.39 c 0,5.13 0.14,10.26 0.3,15.39 v 0.59 h 0.56 c 1.78,-0.06 3.55,-0.13 5.27,-0.24 l 5.06,-0.27 0.29,-7.47 0.24,-7.59 q 0.21,-7.42 0.34,-15 c 1.52,0 3,0 4.54,0 1.54,0 3,-0.07 4.49,-0.13 0,3.19 -0.16,6.38 -0.31,9.57 -0.16,3.42 -0.32,6.84 -0.28,10.26 0.04,3.42 0.08,6.84 0.2,10.26 v 0.72 h 0.67 c 1.79,-0.05 3.57,-0.15 5.31,-0.26 l 5,-0.36 0.27,-4.92 0.22,-5 c 0.16,-3.37 0.26,-6.81 0.36,-10.26 0.1,-3.45 0.15,-6.94 0.14,-10.44 v -5.24 c -0.09,-1.72 -0.11,-3.47 -0.19,-5.2 z"
     id="path2"
     clip-path="url(#clipPath36)"
     transform="translate(5.1875819,-18.156537)" />
  <path
     d="m 339.68,113.39 v -0.75 0 -0.08 h -1.32 c -5,-0.2 -9.91,-0.32 -14.87,-0.24 l -7.7,0.16 c -2.57,0.05 -5.13,0.2 -7.7,0.34 h -0.56 v 0 0.52 c 0.1,3.47 0.18,6.93 0.22,10.4 v 0.26 0 c 0,1.6 0,3.21 0,4.81 0,5.13 -0.22,10.26 -0.37,15.39 -0.15,5.13 -0.26,10.26 -0.2,15.39 0.06,5.13 0.14,10.26 0.3,15.39 v 0.59 h 0.56 l 3.16,-0.13 c 1.55,0.08 3.1,0.17 4.67,0.24 2.64,0.16 5.3,0.19 7.9,0.13 5.22,-0.1 10.37,-0.35 15.12,-0.75 l 0.4,-5 c 0.11,-1.74 0.25,-3.52 0.32,-5.32 v -0.75 h -0.35 l 0.12,-4 q 0.22,-7.63 0.35,-15.4 c 0.08,-5.17 0.12,-10.38 0.07,-15.59 -0.05,-5.21 0,-10.43 -0.12,-15.61 z m -11.39,15.39 c 0,5.13 -0.22,10.26 -0.37,15.39 -0.15,5.13 -0.26,10.26 -0.2,15.39 0,1.36 0,2.71 0.05,4.07 -1.44,0 -2.87,0 -4.31,0 l -4.65,0.09 0.12,-3.78 q 0.22,-7.63 0.35,-15.4 c 0.08,-5.17 0.12,-10.38 0.07,-15.59 q 0,-2.26 0,-4.51 c 1.51,0 3,0 4.5,0 1.5,0 3,-0.07 4.47,-0.13 -0.03,1.51 -0.02,2.99 -0.03,4.47 z"
     id="path3"
     clip-path="url(#clipPath35)"
     transform="translate(5.1875819,-18.156537)" />
  <path
     d="m 88.4,112.43 h -0.93 c -0.79,0 -1.59,0 -2.38,0.07 -4.34,-0.16 -8.67,-0.24 -13,-0.17 l -7.7,0.16 c -2.57,0.05 -5.13,0.2 -7.7,0.34 h -0.56 v 0 0.52 c 0.1,3.47 0.18,6.93 0.22,10.4 v 0.25 0 c 0,1.6 0,3.21 0,4.81 0,1.6 0,3.07 -0.05,4.6 h -0.21 v 0.52 c 0,0.83 0.08,1.66 0.12,2.49 -0.07,2.59 -0.17,5.18 -0.25,7.77 q -0.29,7.7 -0.2,15.39 c 0,5.13 0.14,10.26 0.3,15.39 v 0.59 h 0.56 c 1.78,-0.06 3.55,-0.13 5.27,-0.24 L 67,175 l 0.29,-7.47 0.24,-7.59 q 0.21,-7.42 0.34,-15 c 1.52,0 3,0 4.54,0 1.54,0 2.7,-0.06 4,-0.11 V 145 h 0.75 c 1.8,-0.06 3.6,-0.15 5.33,-0.28 1.73,-0.13 3.41,-0.28 5,-0.42 l 0.4,-5 c 0.11,-1.74 0.25,-3.52 0.32,-5.32 v -0.75 h -0.08 q 0.09,-2 0.16,-4 c 0.08,-2.6 0.16,-5.23 0.15,-7.87 -0.01,-2.64 -0.07,-5.28 -0.11,-7.9 z m -12,20.41 c -1.45,0 -2.9,0 -4.35,0 l -4.11,0.08 c 0,-1.33 0,-2.65 0,-4 q 0,-2.26 0,-4.51 c 1.51,0 3,0 4.5,0 1.5,0 3,-0.07 4.44,-0.13 0,1.48 -0.11,3 -0.2,4.44 -0.09,1.44 -0.18,2.77 -0.24,4.12 z"
     id="path4"
     clip-path="url(#clipPath34)"
     transform="translate(5.1875819,-18.156537)" />
  <path
     d="m 160.23,112.43 h -0.93 c -0.79,0 -1.59,0 -2.38,0.07 -4.34,-0.16 -8.67,-0.24 -13,-0.17 l -7.7,0.16 c -2.57,0.05 -5.13,0.2 -7.7,0.34 h -0.56 v 0 0.52 c 0.1,3.46 0.18,6.93 0.22,10.39 v 0.26 0 c 0,1.6 0,3.21 0,4.81 0,1.6 0,3.07 -0.05,4.6 h -0.21 v 0.52 c 0,0.83 0.08,1.66 0.12,2.49 -0.07,2.59 -0.17,5.18 -0.25,7.77 q -0.29,7.7 -0.2,15.39 c 0,5.13 0.14,10.26 0.3,15.39 v 0.59 h 0.56 c 1.78,-0.06 3.55,-0.13 5.27,-0.24 l 5.06,-0.27 0.29,-7.47 0.24,-7.59 q 0.21,-7.42 0.34,-15 2,0 3.89,0 c 0,3.15 -0.16,6.29 -0.31,9.44 -0.16,3.42 -0.32,6.84 -0.28,10.26 0.04,3.42 0.08,6.84 0.2,10.26 v 0.72 h 0.67 c 1.79,-0.05 3.57,-0.15 5.31,-0.26 l 5,-0.36 0.27,-4.92 0.22,-5 c 0.16,-3.37 0.26,-6.81 0.36,-10.26 0.1,-3.45 0.15,-6.8 0.14,-10.22 l 4.14,-0.35 0.4,-5 c 0.11,-1.74 0.25,-3.52 0.32,-5.32 v -0.75 H 160 q 0.09,-2 0.16,-4 c 0.08,-2.6 0.16,-5.23 0.15,-7.87 -0.01,-2.64 -0.07,-5.28 -0.11,-7.9 z m -12,20.41 c -1.45,0 -2.9,0 -4.35,0 l -4.11,0.08 c 0,-1.33 0,-2.65 0,-4 q 0,-2.26 0,-4.51 c 1.51,0 3,0 4.5,0 1.5,0 3,-0.07 4.44,-0.13 0,1.48 -0.11,3 -0.2,4.44 -0.09,1.44 -0.18,2.77 -0.25,4.12 z"
     id="path5"
     clip-path="url(#clipPath33)"
     transform="translate(5.1875819,-18.156537)" />
  <path
     d="m 303.87,112.43 h -0.93 c -0.79,0 -1.59,0 -2.38,0.07 -4.34,-0.16 -8.67,-0.24 -13,-0.17 l -7.7,0.16 c -2.57,0.05 -5.13,0.2 -7.7,0.34 h -0.56 v 0 0.52 c 0.1,3.47 0.18,6.93 0.22,10.4 v 0.25 0 c 0,1.6 0,3.21 0,4.81 0,1.6 0,3.07 -0.05,4.6 h -0.21 v 0.52 c 0,0.83 0.08,1.66 0.12,2.49 -0.07,2.59 -0.17,5.18 -0.25,7.77 q -0.29,7.7 -0.2,15.39 c 0,5.13 0.14,10.26 0.3,15.39 v 0.59 h 0.56 c 1.78,-0.06 3.55,-0.13 5.27,-0.24 l 5.06,-0.27 0.29,-7.47 L 283,160 q 0.21,-7.42 0.34,-15 2,0 3.89,0 c 0,3.15 -0.16,6.29 -0.31,9.44 -0.16,3.42 -0.32,6.84 -0.29,10.26 0.03,3.42 0.08,6.84 0.2,10.26 v 0.72 h 0.67 c 1.79,-0.05 3.57,-0.15 5.31,-0.26 l 5,-0.36 0.27,-4.92 0.22,-5 c 0.16,-3.37 0.26,-6.81 0.36,-10.26 0.1,-3.45 0.15,-6.8 0.14,-10.22 l 4.14,-0.35 0.4,-5 c 0.11,-1.74 0.25,-3.52 0.32,-5.32 v -0.75 h -0.08 q 0.09,-2 0.16,-4 c 0.08,-2.6 0.16,-5.23 0.15,-7.87 -0.01,-2.64 -0.07,-5.28 -0.11,-7.9 z m -12,20.41 c -1.45,0 -2.9,0 -4.35,0 l -4.11,0.08 c 0,-1.33 0,-2.65 0,-4 q 0,-2.26 0,-4.51 c 1.51,0 3,0 4.5,0 1.5,0 3,-0.07 4.44,-0.13 0,1.48 -0.11,3 -0.2,4.44 -0.09,1.44 -0.15,2.77 -0.24,4.12 z"
     id="path6"
     clip-path="url(#clipPath32)"
     transform="translate(5.1875819,-18.156537)" />
  <path
     d="m 232,133.91 v -1 l -0.86,0.07 -1.13,0.07 c -4.75,-0.19 -9.51,-0.29 -14.26,-0.21 l -4.39,0.09 q 0.08,-1.89 0.15,-3.81 0.07,-2.33 0.12,-4.69 c 1.49,0 3,0 4.46,0 5.22,-0.1 10.37,-0.35 15.12,-0.75 l 0.4,-5 c 0.11,-1.74 0.25,-3.52 0.32,-5.32 v -0.75 h -0.82 c -5.13,-0.21 -10.26,-0.34 -15.39,-0.25 l -4.72,0.1 h -0.83 -2.15 l -1.82,0.07 H 205 l -4.67,0.23 h -0.57 v 0 0.52 q 0.07,1.53 0.14,3.05 c 0,0.43 0,0.86 0,1.29 0,1.08 0.06,2.15 0.06,3.23 0,0.07 0,0.14 0,0.21 0,2.54 -0.09,5.07 -0.25,7.61 -0.16,2.54 -0.32,5.13 -0.33,7.7 -0.01,2.57 0,5.13 0.12,7.7 v 0.8 h 0.75 c 1.61,-0.05 3.22,-0.14 4.78,-0.25 l 3,0.16 c 2.64,0.16 5.3,0.19 7.9,0.13 q 2.26,0 4.49,-0.13 c 0,3.19 -0.16,6.38 -0.31,9.57 -0.15,3.19 -0.28,6.13 -0.28,9.2 -1.41,0 -2.82,0 -4.23,0 l -4.22,0.09 q 0.09,-2 0.14,-4 c 0,-1.78 0,-3.56 0,-5.33 v -1 h -1 l -5.13,0.15 c -1.71,0.06 -3.42,0.19 -5.13,0.31 h -0.58 v 0.51 c 0.11,1.71 0.23,3.42 0.24,5.13 0,1.54 0,3.07 -0.12,4.61 h -0.14 v 0.52 c 0,0.24 0,0.47 0,0.71 -0.11,1.47 -0.24,2.95 -0.32,4.42 -0.1,1.71 -0.06,3.42 0,5.13 v 0.88 h 0.84 c 1.87,0 3.74,-0.15 5.54,-0.29 l 2.29,0.12 c 2.64,0.16 5.3,0.19 7.9,0.13 q 2.07,0 4.12,-0.11 v 0 h 0.67 c 1.79,-0.05 3.57,-0.15 5.31,-0.26 h 0.7 c 1.47,-0.09 2.92,-0.19 4.33,-0.31 l 0.4,-5 c 0.11,-1.74 0.25,-3.52 0.32,-5.32 v -0.75 h -0.21 c 0.13,-3 0.23,-6.05 0.31,-9.12 0.08,-3.46 0.15,-6.94 0.14,-10.44 v -5.24 c 0.12,-1.7 0.1,-3.45 0,-5.18 z"
     id="path7"
     clip-path="url(#clipPath31)"
     transform="translate(5.1875819,-18.156537)" />
  <path
     d="m 124.36,153.39 h -1 l -5.13,0.15 c -1.71,0.06 -3.42,0.19 -5.13,0.31 h -0.58 v 0.51 c 0.11,1.71 0.23,3.42 0.24,5.13 0,1.36 0,2.71 -0.09,4.07 -1.58,0 -3.15,0 -4.73,0 l -4.65,0.09 0.12,-3.78 q 0.21,-7.4 0.34,-14.93 a 41.13,41.13 0 0 0 4.49,-0.15 48.78,48.78 0 0 0 4.9,-0.65 c 0.24,-1.49 0.48,-3.14 0.66,-4.9 0.18,-1.76 0.29,-3.6 0.34,-5.43 v -1.07 h -1.09 c -0.86,0 -1.71,0 -2.57,0 L 108,133 c -1.37,0 -2.74,0.16 -4.11,0.3 0,-1.43 0,-2.86 0,-4.29 0,-1.43 0,-3 0,-4.51 1.51,0 3,0 4.5,0 5.22,-0.1 10.37,-0.35 15.12,-0.75 l 0.4,-5 c 0.11,-1.74 0.25,-3.52 0.32,-5.32 v -0.75 h -0.82 c -5.13,-0.21 -10.26,-0.34 -15.39,-0.25 l -7.7,0.16 c -2.57,0.05 -5.13,0.2 -7.7,0.34 h -0.56 v 0 0.52 c 0.1,3.46 0.18,6.93 0.22,10.39 v 0.16 0 c 0,1.6 0,3.21 0,4.81 0,5.13 -0.22,10.26 -0.37,15.39 -0.15,5.13 -0.26,10.26 -0.2,15.39 0.06,5.13 0.14,10.26 0.3,15.39 v 0.59 h 0.56 l 3.16,-0.13 c 1.55,0.08 3.1,0.17 4.67,0.24 2.64,0.16 5.3,0.19 7.9,0.13 l 3.94,-0.11 v 0.16 h 0.84 a 101.54,101.54 0 0 0 10.33,-0.79 c 0.32,-3.12 0.59,-6.5 0.78,-10 0.1,-1.74 0.15,-3.51 0.2,-5.28 0.05,-1.77 0,-3.56 0,-5.33 z"
     id="path8"
     clip-path="url(#clipPath30)"
     transform="translate(5.1875819,-18.156537)" />
  <path
     d="m 196.19,153.39 h -1 l -5.13,0.15 c -1.71,0.06 -3.42,0.19 -5.13,0.31 h -0.58 v 0.51 c 0.11,1.71 0.23,3.42 0.24,5.13 0,1.36 0,2.71 -0.09,4.07 -1.58,0 -3.15,0 -4.73,0 l -4.65,0.09 0.12,-3.78 q 0.21,-7.4 0.34,-14.93 a 41.13,41.13 0 0 0 4.49,-0.15 48.78,48.78 0 0 0 4.9,-0.65 c 0.24,-1.49 0.48,-3.14 0.66,-4.9 0.18,-1.76 0.29,-3.6 0.34,-5.43 v -1.07 H 185 c -0.86,0 -1.71,0 -2.57,0 l -2.57,0.1 c -1.37,0 -2.74,0.16 -4.11,0.3 0,-1.43 0,-2.86 0,-4.29 0,-1.43 0,-3 0,-4.51 1.51,0 3,0 4.5,0 5.22,-0.1 10.37,-0.35 15.12,-0.75 l 0.4,-5 c 0.11,-1.74 0.25,-3.52 0.32,-5.32 v -0.75 h -0.82 c -5.13,-0.21 -10.26,-0.34 -15.39,-0.25 l -7.7,0.16 c -2.57,0.05 -5.13,0.2 -7.7,0.34 h -0.56 v 0 0.52 c 0.1,3.46 0.18,6.93 0.22,10.39 v 0.32 0 c 0,1.6 0,3.21 0,4.81 0,5.13 -0.22,10.26 -0.37,15.39 -0.15,5.13 -0.26,10.26 -0.2,15.39 0.06,5.13 0.14,10.26 0.3,15.39 v 0.59 h 0.56 l 3.16,-0.13 c 1.55,0.08 3.1,0.17 4.67,0.24 2.64,0.16 5.3,0.19 7.9,0.13 l 3.94,-0.11 v 0.16 h 0.84 a 101.54,101.54 0 0 0 10.33,-0.79 c 0.32,-3.12 0.59,-6.5 0.78,-10 0.1,-1.74 0.15,-3.51 0.2,-5.28 0.05,-1.77 0,-3.56 0,-5.33 z"
     id="path9"
     clip-path="url(#clipPath29)"
     transform="translate(5.1875819,-18.156537)" />
  <path
     d="m 678,165.4 c 0,-0.24 0,-0.47 0,-0.71 v -0.52 h -0.14 c -0.1,-1.54 -0.15,-3.07 -0.12,-4.61 0,-1.71 0.13,-3.42 0.24,-5.13 v -0.51 h -0.58 c -1.71,-0.12 -3.42,-0.25 -5.13,-0.31 l -5.13,-0.15 h -1 v 1 c -0.06,1.77 -0.06,3.55 0,5.33 q 0.05,2 0.14,4 l -4.22,-0.09 c -1.41,0 -2.82,0 -4.23,0 0,-3.07 -0.14,-6.13 -0.28,-9.2 -0.14,-3.07 -0.3,-6.38 -0.31,-9.57 q 2.23,0.08 4.49,0.13 c 2.61,0.06 5.26,0 7.9,-0.13 l 3,-0.16 c 1.57,0.11 3.17,0.2 4.78,0.25 h 0.75 v -0.8 c 0.08,-2.57 0.13,-5.13 0.12,-7.7 -0.01,-2.57 -0.2,-5.13 -0.33,-7.7 -0.13,-2.57 -0.26,-5.07 -0.25,-7.61 0,-0.07 0,-0.14 0,-0.21 0,-1.08 0,-2.15 0.06,-3.23 0,-0.43 0,-0.85 0,-1.28 q 0.06,-1.53 0.14,-3.06 v -0.52 0 h -0.57 l -4.67,-0.23 h -1.2 l -1.82,-0.07 h -2.15 -0.83 l -4.72,-0.1 c -5.13,-0.08 -10.26,0 -15.39,0.25 h -0.82 v 0.75 c 0.07,1.8 0.21,3.59 0.32,5.32 l 0.4,5 c 4.75,0.4 9.91,0.65 15.12,0.75 1.47,0 3,0 4.46,0 q 0,2.35 0.12,4.69 0.07,1.91 0.15,3.81 l -4.39,-0.09 c -4.75,-0.08 -9.51,0 -14.26,0.21 l -1.13,-0.07 -0.86,-0.07 v 1 c -0.08,1.74 -0.09,3.48 -0.14,5.23 v 5.24 c 0,3.5 0.06,7 0.14,10.44 0.09,3.06 0.18,6.11 0.31,9.12 h -0.21 v 0.75 c 0.07,1.8 0.21,3.59 0.32,5.32 l 0.4,5 c 1.41,0.12 2.86,0.22 4.33,0.31 h 0.7 c 1.73,0.11 3.52,0.21 5.31,0.26 h 0.67 v 0 q 2,0.07 4.12,0.11 c 2.61,0.06 5.26,0 7.9,-0.13 l 2.29,-0.12 c 1.8,0.15 3.67,0.26 5.54,0.29 h 0.84 V 175 c 0,-1.71 0.07,-3.42 0,-5.13 0.04,-1.52 -0.09,-3 -0.18,-4.47 z"
     id="path10"
     clip-path="url(#clipPath28)"
     transform="translate(5.1875819,-18.156537)" />
  <path
     d="m 714.19,113.39 v -0.75 0 -0.08 h -1.32 c -5,-0.2 -9.91,-0.32 -14.87,-0.24 l -7.7,0.16 c -2.57,0.05 -5.13,0.2 -7.7,0.34 h -0.56 v 0 0.52 c 0.1,3.47 0.18,6.93 0.22,10.4 v 0.26 0 c 0,1.6 0,3.21 0,4.81 0,5.13 -0.22,10.26 -0.37,15.39 -0.15,5.13 -0.26,10.26 -0.2,15.39 0.06,5.13 0.14,10.26 0.3,15.39 v 0.59 h 0.56 l 3.16,-0.13 c 1.55,0.08 3.1,0.17 4.67,0.24 2.64,0.16 5.3,0.19 7.9,0.13 5.22,-0.1 10.37,-0.35 15.12,-0.75 l 0.4,-5 c 0.11,-1.74 0.25,-3.52 0.32,-5.32 v -0.75 h -0.35 l 0.12,-4 q 0.22,-7.63 0.35,-15.4 c 0.08,-5.17 0.12,-10.38 0.07,-15.59 -0.05,-5.21 0,-10.43 -0.12,-15.61 z m -11.39,15.39 c 0,5.13 -0.22,10.26 -0.37,15.39 -0.15,5.13 -0.26,10.26 -0.2,15.39 0,1.36 0,2.71 0.05,4.07 -1.44,0 -2.87,0 -4.31,0 l -4.65,0.09 0.12,-3.78 q 0.22,-7.63 0.35,-15.4 c 0.08,-5.17 0.12,-10.38 0.07,-15.59 q 0,-2.26 0,-4.51 c 1.51,0 3,0 4.5,0 1.5,0 3,-0.07 4.47,-0.13 -0.02,1.51 -0.02,2.99 -0.02,4.47 z"
     id="path11"
     clip-path="url(#clipPath27)"
     transform="translate(5.1875819,-18.156537)" />
  <path
     d="m 749.8,165.4 c 0,-0.24 0,-0.47 0,-0.71 v -0.52 h -0.14 c -0.1,-1.54 -0.15,-3.07 -0.12,-4.61 0,-1.71 0.13,-3.42 0.24,-5.13 v -0.51 h -0.58 c -1.71,-0.12 -3.42,-0.25 -5.13,-0.31 l -5.13,-0.15 h -1 v 1 c -0.06,1.77 -0.06,3.55 0,5.33 q 0.05,2 0.14,4 l -4.22,-0.09 c -1.41,0 -2.82,0 -4.23,0 0,-3.07 -0.14,-6.13 -0.28,-9.2 -0.14,-3.07 -0.3,-6.38 -0.31,-9.57 q 2.23,0.08 4.49,0.13 c 2.61,0.06 5.26,0 7.9,-0.13 l 3,-0.16 c 1.57,0.11 3.17,0.2 4.78,0.25 h 0.75 v -0.8 c 0.08,-2.57 0.13,-5.13 0.12,-7.7 -0.01,-2.57 -0.2,-5.13 -0.33,-7.7 -0.13,-2.57 -0.26,-5.07 -0.25,-7.61 0,-0.07 0,-0.14 0,-0.21 0,-1.08 0,-2.15 0.06,-3.23 0,-0.43 0,-0.85 0,-1.28 q 0.06,-1.53 0.14,-3.06 v -0.52 0 h -0.57 l -4.67,-0.23 h -1.2 l -1.82,-0.07 h -2.15 -0.83 l -4.72,-0.1 c -5.13,-0.08 -10.26,0 -15.39,0.25 h -0.82 v 0.75 c 0.07,1.8 0.21,3.59 0.32,5.32 l 0.4,5 c 4.75,0.4 9.91,0.65 15.12,0.75 1.47,0 3,0 4.46,0 q 0,2.35 0.12,4.69 0.07,1.91 0.15,3.81 l -4.39,-0.09 c -4.75,-0.08 -9.51,0 -14.26,0.21 l -0.95,-0.2 -0.86,-0.07 v 1 c -0.08,1.74 -0.09,3.48 -0.14,5.23 v 5.24 c 0,3.5 0.06,7 0.14,10.44 0.09,3.06 0.18,6.11 0.31,9.12 h -0.21 v 0.75 c 0.07,1.8 0.21,3.59 0.32,5.32 l 0.4,5 c 1.41,0.12 2.86,0.22 4.33,0.31 h 0.7 c 1.73,0.11 3.52,0.21 5.31,0.26 h 0.67 v 0 q 2,0.07 4.12,0.11 c 2.61,0.06 5.26,0 7.9,-0.13 l 2.29,-0.12 c 1.8,0.15 3.67,0.26 5.54,0.29 h 0.84 v -0.88 c 0,-1.71 0.07,-3.42 0,-5.13 -0.16,-1.39 -0.25,-2.87 -0.36,-4.34 z"
     id="path12"
     clip-path="url(#clipPath26)"
     transform="translate(5.1875819,-18.156537)" />
  <path
     d="m 786.26,144.37 v -5.24 c 0,-1.75 -0.06,-3.49 -0.14,-5.23 v -1 l -0.86,0.07 -1.13,0.07 c -4.75,-0.19 -9.51,-0.29 -14.26,-0.21 l -4.39,0.09 q 0.08,-1.89 0.15,-3.81 0.07,-2.33 0.12,-4.69 c 1.49,0 3,0 4.46,0 5.22,-0.1 10.37,-0.35 15.12,-0.75 l 0.4,-5 c 0.11,-1.74 0.25,-3.52 0.32,-5.32 v -0.75 h -0.82 c -5.13,-0.21 -10.26,-0.34 -15.39,-0.25 l -4.72,0.1 h -0.83 -2.15 l -1.82,0.07 h -1.2 l -4.67,0.23 h -0.57 v 0 0.52 q 0.07,1.53 0.14,3.06 c 0,0.43 0,0.85 0,1.28 0,1.08 0.06,2.16 0.06,3.24 0,0.06 0,0.13 0,0.19 0,2.54 -0.09,5.08 -0.25,7.62 -0.16,2.54 -0.32,5.13 -0.33,7.7 -0.01,2.57 0,5.13 0.12,7.7 v 0.8 h 0.75 c 1.61,-0.05 3.22,-0.14 4.78,-0.25 l 3,0.16 c 2.64,0.16 5.3,0.19 7.9,0.13 q 2.26,0 4.49,-0.13 c 0,3.19 -0.16,6.38 -0.31,9.57 -0.15,3.19 -0.28,6.13 -0.28,9.2 -1.41,0 -2.82,0 -4.23,0 l -4.22,0.09 q 0.09,-2 0.14,-4 c 0,-1.78 0,-3.56 0,-5.33 v -1 h -1 l -5.13,0.15 c -1.71,0.06 -3.42,0.19 -5.13,0.31 h -0.58 v 0.51 c 0.11,1.71 0.23,3.42 0.24,5.13 0,1.54 0,3.07 -0.12,4.61 h -0.14 v 0.52 c 0,0.24 0,0.47 0,0.71 -0.11,1.47 -0.24,2.95 -0.32,4.42 -0.1,1.71 -0.06,3.42 0,5.13 v 0.88 h 0.84 c 1.87,0 3.74,-0.15 5.54,-0.29 l 2.29,0.12 c 2.64,0.16 5.3,0.19 7.9,0.13 q 2.07,0 4.12,-0.11 v 0 h 0.67 c 1.79,-0.05 3.57,-0.15 5.31,-0.26 h 0.7 c 1.47,-0.09 2.92,-0.19 4.33,-0.31 l 0.4,-5 c 0.11,-1.74 0.25,-3.52 0.32,-5.32 v -0.75 h -0.21 c 0.13,-3 0.23,-6.05 0.31,-9.12 0.22,-3.41 0.29,-6.89 0.28,-10.39 z"
     id="path13"
     clip-path="url(#clipPath25)"
     transform="translate(5.1875819,-18.156537)" />
  <path
     d="m 251.64,112.34 -7.7,0.16 c -2.57,0.05 -5.13,0.2 -7.7,0.34 h -0.57 v 0.52 c 0.07,1.71 0.18,3.42 0.21,5.13 0.03,1.71 0,3.42 0,5.13 V 124 h 0.33 c 2.58,0 5.19,0.25 7.83,0.36 0.71,0 1.41,0.05 2.12,0.08 0,1.46 0,2.91 0,4.37 0,5.13 -0.22,10.26 -0.37,15.39 -0.15,5.13 -0.26,10.26 -0.2,15.39 0.06,5.13 0.14,10.26 0.3,15.39 v 0.59 h 0.56 c 1.78,-0.06 3.55,-0.13 5.27,-0.24 l 5.06,-0.27 0.29,-7.47 0.24,-7.59 q 0.22,-7.63 0.35,-15.4 c 0.08,-5.17 0.12,-10.38 0.07,-15.59 q 0,-2.35 0,-4.68 c 3.22,-0.13 6.38,-0.32 9.36,-0.57 l 0.4,-5 c 0.11,-1.74 0.25,-3.52 0.32,-5.32 v -0.75 h -0.82 c -5.08,-0.31 -10.21,-0.43 -15.35,-0.35 z"
     id="path14"
     clip-path="url(#clipPath24)"
     transform="translate(5.1875819,-18.156537)" />
  <path
     d="m 375.61,114.84 c 0,-0.49 0.06,-1 0.08,-1.46 v -0.87 h -1 c -1.71,-0.08 -3.42,-0.11 -5.13,-0.15 -1.71,-0.04 -3.42,0 -5.13,0.06 l -5.13,0.15 c -1.71,0.06 -3.42,0.19 -5.13,0.31 h -0.58 v 0.51 c 0.11,1.71 0.23,3.42 0.24,5.13 0.01,1.71 0,3.42 -0.15,5.13 v 0.43 h 0.49 c 1.74,0.12 3.5,0.28 5.29,0.36 1.57,0.08 3.12,0 4.66,0 0,1.44 0,2.88 0,4.32 0,5.13 -0.22,10.26 -0.37,15.39 -0.15,5.13 -0.26,10.26 -0.2,15.39 0,1.36 0,2.71 0.05,4.07 -1.44,0 -2.87,0 -4.31,0 l -4.39,0.09 q 0.08,-1.89 0.15,-3.81 c 0.08,-2.6 0.16,-5.23 0.15,-7.87 -0.01,-2.64 -0.07,-5.28 -0.11,-7.9 v -1 h -0.93 c -3.42,0 -6.84,0.2 -10.26,0.39 h -0.57 v 0.52 c 0.12,2.57 0.26,5.13 0.24,7.7 -0.02,2.57 -0.09,5.13 -0.25,7.7 -0.16,2.57 -0.32,5.13 -0.33,7.7 -0.01,2.57 0,5.13 0.12,7.7 v 0.8 h 0.75 c 1.61,0 3.22,-0.14 4.78,-0.25 l 3,0.16 c 2.64,0.16 5.3,0.19 7.9,0.13 5.22,-0.1 10.37,-0.35 15.12,-0.75 l 0.4,-5 c 0.11,-1.74 0.25,-3.52 0.32,-5.32 v -0.75 h -0.35 l 0.12,-4 q 0.22,-7.63 0.35,-15.4 c 0.08,-5.17 0.12,-10.38 0.07,-15.59 0.16,-4.61 0.14,-9.32 0.04,-14.02 z"
     id="path15"
     clip-path="url(#clipPath23)"
     transform="translate(5.1875819,-18.156537)" />
  <path
     d="m 492.77,112.34 -7.7,0.16 c -2.57,0.05 -5.13,0.2 -7.7,0.34 h -0.56 v 0 0.52 c 0.1,3.46 0.18,6.93 0.22,10.39 v 0.25 0 c 0,1.6 0,3.21 0,4.81 0,1.6 0,3.07 -0.05,4.61 h -0.22 v 0.51 q 0.06,1 0.13,2.09 c -0.08,2.72 -0.17,5.45 -0.26,8.17 q -0.29,7.7 -0.2,15.39 c 0,5.13 0.14,10.26 0.3,15.39 v 0.59 h 0.56 c 1.78,-0.06 3.55,-0.13 5.27,-0.24 l 5.06,-0.27 0.29,-7.47 0.24,-7.59 q 0.21,-7.44 0.34,-15 c 3.28,-0.13 6.5,-0.36 9.4,-0.7 0.33,-3.11 0.71,-6.69 0.85,-10.33 v -0.87 h -1 c -1.71,-0.08 -3.42,-0.11 -5.13,-0.15 q -2.06,0 -4.11,0 c 0,-1.3 0,-2.6 0,-3.91 q 0,-2.26 0,-4.51 c 1.51,0 3,0 4.5,0 5.22,-0.1 10.37,-0.35 15.12,-0.75 l 0.4,-5 c 0.11,-1.74 0.25,-3.52 0.32,-5.32 v -0.75 h -0.82 c -5.02,-0.32 -10.12,-0.44 -15.25,-0.36 z"
     id="path16"
     clip-path="url(#clipPath22)"
     transform="translate(5.1875819,-18.156537)" />
  <path
     d="m 580.88,133.91 v -1 L 580,133 l -1.13,0.07 c -4.75,-0.19 -9.51,-0.29 -14.26,-0.21 l -4.39,0.09 q 0.08,-1.89 0.15,-3.81 0.07,-2.33 0.12,-4.69 c 1.49,0 3,0 4.46,0 5.22,-0.1 10.37,-0.35 15.12,-0.75 l 0.4,-5 c 0.11,-1.74 0.25,-3.52 0.32,-5.32 v -0.75 h -0.82 c -5.13,-0.21 -10.26,-0.34 -15.39,-0.25 l -4.72,0.1 H 559 556.85 l -1.82,0.07 h -1.2 l -4.67,0.23 h -0.57 v 0 0.52 q 0.07,1.53 0.14,3.05 c 0,0.43 0,0.86 0,1.29 0,1.08 0.06,2.15 0.06,3.23 0,0.07 0,0.14 0,0.21 0,2.54 -0.09,5.07 -0.25,7.61 -0.16,2.54 -0.32,5.13 -0.33,7.7 -0.01,2.57 0,5.13 0.12,7.7 v 0.8 h 0.75 c 1.61,-0.05 3.22,-0.14 4.78,-0.25 l 3,0.16 c 2.64,0.16 5.3,0.19 7.9,0.13 q 2.26,0 4.49,-0.13 c 0,3.19 -0.16,6.38 -0.31,9.57 -0.15,3.19 -0.28,6.13 -0.28,9.2 -1.41,0 -2.82,0 -4.23,0 l -4.22,0.09 q 0.09,-2 0.14,-4 c 0,-1.78 0,-3.56 0,-5.33 v -1 h -1 l -5.13,0.15 c -1.71,0.06 -3.42,0.19 -5.13,0.31 h -0.58 v 0.51 c 0.11,1.71 0.23,3.42 0.24,5.13 0,1.54 0,3.07 -0.12,4.61 h -0.14 v 0.52 c 0,0.24 0,0.47 0,0.71 -0.11,1.47 -0.24,2.95 -0.32,4.42 -0.1,1.71 -0.06,3.42 0,5.13 v 0.88 h 0.84 c 1.87,0 3.74,-0.15 5.54,-0.29 l 2.29,0.12 c 2.64,0.16 5.3,0.19 7.9,0.13 q 2.07,0 4.12,-0.11 v 0 h 0.67 c 1.79,-0.05 3.57,-0.15 5.31,-0.26 h 0.7 c 1.47,-0.09 2.92,-0.19 4.33,-0.31 l 0.4,-5 c 0.11,-1.74 0.25,-3.52 0.32,-5.32 v -0.75 h -0.21 c 0.13,-3 0.23,-6.05 0.31,-9.12 0.08,-3.46 0.15,-6.94 0.14,-10.44 v -5.24 c 0.17,-1.72 0.17,-3.47 0.05,-5.2 z"
     id="path17"
     clip-path="url(#clipPath21)"
     transform="translate(5.1875819,-18.156537)" />
  <path
     d="m 545,153.39 h -1 l -5.13,0.15 c -1.71,0.06 -3.42,0.19 -5.13,0.31 h -0.58 v 0.51 c 0.11,1.71 0.23,3.42 0.24,5.13 0,1.36 0,2.71 -0.09,4.07 -1.58,0 -3.15,0 -4.73,0 l -4.65,0.09 0.12,-3.78 q 0.21,-7.4 0.34,-14.93 a 41.13,41.13 0 0 0 4.49,-0.15 48.78,48.78 0 0 0 4.9,-0.65 c 0.24,-1.49 0.48,-3.14 0.66,-4.9 0.18,-1.76 0.29,-3.6 0.34,-5.43 v -1.07 h -1.09 c -0.86,0 -1.71,0 -2.57,0 l -2.57,0.1 c -1.37,0 -2.74,0.16 -4.11,0.3 0,-1.43 0,-2.86 0,-4.29 0,-1.43 0,-3 0,-4.51 1.51,0 3,0 4.5,0 5.22,-0.1 10.37,-0.35 15.12,-0.75 l 0.4,-5 c 0.11,-1.74 0.25,-3.52 0.32,-5.32 v -0.75 h -0.82 c -5.13,-0.21 -10.26,-0.34 -15.39,-0.25 l -7.7,0.16 c -2.57,0.05 -5.13,0.2 -7.7,0.34 h -0.56 v 0 0.52 c 0.1,3.46 0.18,6.93 0.22,10.39 v 0.32 0 c 0,1.6 0,3.21 0,4.81 0,5.13 -0.22,10.26 -0.37,15.39 -0.15,5.13 -0.26,10.26 -0.2,15.39 0.06,5.13 0.14,10.26 0.3,15.39 v 0.59 h 0.56 l 3.16,-0.13 c 1.55,0.08 3.1,0.17 4.67,0.24 2.64,0.16 5.3,0.19 7.9,0.13 l 3.94,-0.11 v 0.16 h 0.84 a 101.54,101.54 0 0 0 10.33,-0.79 c 0.32,-3.12 0.59,-6.5 0.78,-10 0.1,-1.74 0.15,-3.51 0.2,-5.28 0.05,-1.77 0,-3.56 0,-5.33 z"
     id="path18"
     clip-path="url(#clipPath20)"
     transform="translate(5.1875819,-18.156537)" />
  <path
     d="m 600.51,112.34 -7.7,0.16 c -2.57,0.05 -5.13,0.2 -7.7,0.34 h -0.57 v 0.52 c 0.07,1.71 0.18,3.42 0.21,5.13 0.03,1.71 0,3.42 0,5.13 V 124 h 0.33 c 2.58,0 5.19,0.25 7.83,0.36 0.71,0 1.41,0.05 2.12,0.08 0,1.46 0,2.91 0,4.37 0,5.13 -0.22,10.26 -0.37,15.39 -0.15,5.13 -0.26,10.26 -0.2,15.39 0.06,5.13 0.14,10.26 0.3,15.39 v 0.59 h 0.56 c 1.78,-0.06 3.55,-0.13 5.27,-0.24 l 5.06,-0.27 0.29,-7.47 0.24,-7.59 q 0.22,-7.63 0.35,-15.4 c 0.08,-5.17 0.12,-10.38 0.07,-15.59 q 0,-2.35 0,-4.68 c 3.22,-0.13 6.38,-0.32 9.36,-0.57 l 0.4,-5 c 0.11,-1.74 0.25,-3.52 0.32,-5.32 v -0.75 h -0.82 c -5.09,-0.31 -10.22,-0.43 -15.35,-0.35 z"
     id="path19"
     clip-path="url(#clipPath19)"
     transform="translate(5.1875819,-18.156537)" />
</svg>
